<svg width="25" height="28" viewBox="0 0 25 28" fill="none" xmlns="http://www.w3.org/2000/svg">
<path d="M22.7033 14.4909L22.6858 14.4762L22.6672 14.4629C22.2992 14.1984 21.8445 14.0833 21.395 14.141C20.9502 14.1981 20.5432 14.4201 20.2544 14.7628L18.5977 16.5941L18.5694 16.6254C18.377 16.4238 18.1304 16.2603 17.8233 16.1591C17.5212 16.0544 17.2025 15.9512 16.8705 15.8438C16.3773 15.6841 15.855 15.5151 15.3151 15.3175C14.4247 14.9916 13.643 14.6397 13.1579 14.2569L13.1476 14.2488L13.1369 14.2411C12.2434 13.5973 11.282 13.3059 10.3078 13.4428C9.34136 13.5786 8.45012 14.1232 7.66256 14.9808L7.35109 15.32L7.59818 15.7086C7.87749 16.1479 8.08964 16.6264 8.22761 17.1283L8.23392 17.1513L8.24204 17.1737L9.9611 21.9177L9.9677 21.936L9.97547 21.9537C10.0869 22.2085 10.1563 22.4797 10.181 22.7567L10.211 23.0941L10.5155 23.2427C10.6882 23.3269 10.8596 23.4022 11.0326 23.4723L14.1315 24.7804L14.1337 24.7813C14.5752 24.9656 15.0564 25.0346 15.5319 24.9818C16.0004 24.9297 16.4483 24.7611 16.8346 24.4915C18.3777 23.5442 19.7741 22.3764 20.9794 21.0251L20.9795 21.0252L20.9873 21.0161C21.8872 19.9656 22.6656 18.817 23.3079 17.592C23.5764 17.084 23.663 16.4994 23.5532 15.9353C23.4433 15.3709 23.1433 14.8611 22.7033 14.4909ZM14.6011 19.6946C14.6011 19.6946 14.6031 19.6949 14.6078 19.6957L14.6057 19.6954C14.6027 19.6949 14.6011 19.6946 14.6011 19.6946ZM14.6342 19.4879L14.6253 19.4939L14.6342 19.4879Z" stroke="#1875F7" stroke-width="1.2"/>
<path d="M3.71257 16.3831L3.70181 16.3882L3.69125 16.3936L2.45946 17.0329L2.44541 17.0402L2.43177 17.0482C2.00403 17.2997 1.6796 17.695 1.5164 18.1635C1.35396 18.6299 1.36178 19.1387 1.53835 19.5997L3.70944 25.5887C3.78321 25.8318 3.90761 26.0566 4.07454 26.2484C4.24619 26.4455 4.45868 26.603 4.69728 26.7097C4.93588 26.8165 5.19486 26.8701 5.45624 26.8667C5.71762 26.8634 5.97514 26.8031 6.21091 26.6903L6.21929 26.6863L6.22755 26.682L7.45545 26.0466L7.4699 26.0391L7.48394 26.0309C7.91739 25.7759 8.2447 25.3735 8.40613 24.8972C8.56632 24.4246 8.55257 23.9105 8.36759 23.4473C8.28839 23.2301 7.93567 22.2544 7.53682 21.1511C6.96828 19.5784 6.30602 17.7464 6.20863 17.4825C6.1334 17.241 6.00834 17.0179 5.84143 16.8276C5.66982 16.6319 5.45801 16.4756 5.22047 16.3693C4.98293 16.263 4.72525 16.2092 4.46502 16.2116C4.20479 16.214 3.94813 16.2725 3.71257 16.3831Z" stroke="#1875F7" stroke-width="1.2"/>
<path d="M15.3096 11.9513C12.7459 11.9513 10.6602 9.86568 10.6602 7.30196C10.6445 4.29169 13.5129 1.78576 14.7475 0.845377C15.0784 0.593208 15.5408 0.593208 15.8717 0.845377C17.1063 1.80152 19.9747 4.33897 19.959 7.30721C19.959 9.86568 17.8733 11.9513 15.3096 11.9513ZM15.3096 1.44428C15.2833 1.44428 15.2518 1.45479 15.2255 1.4758C14.3377 2.1535 11.4377 4.57538 11.4535 7.30196C11.4535 9.43489 13.1872 11.1633 15.3149 11.1633C17.4425 11.1633 19.1762 9.43489 19.1762 7.30721C19.1919 4.61741 16.2867 2.16401 15.3937 1.4758C15.3621 1.45479 15.3359 1.44428 15.3096 1.44428Z" stroke="#1875F7"/>
</svg>
