<svg width="23" height="23" viewBox="0 0 23 23" fill="none" xmlns="http://www.w3.org/2000/svg">
<path d="M11.5 14.2666V17.2666M1.5 11.4706C1.5 9.1816 1.5 8.0376 2.02 7.0896C2.538 6.1406 3.487 5.5526 5.384 4.3746L7.384 3.1336C9.389 1.8886 10.392 1.2666 11.5 1.2666C12.608 1.2666 13.61 1.8886 15.616 3.1336L17.616 4.3746C19.513 5.5526 20.462 6.1406 20.981 7.0896C21.5 8.0386 21.5 9.1816 21.5 11.4696V12.9916C21.5 16.8916 21.5 18.8426 20.328 20.0546C19.156 21.2666 17.271 21.2666 13.5 21.2666H9.5C5.729 21.2666 3.843 21.2666 2.672 20.0546C1.501 18.8426 1.5 16.8926 1.5 12.9916V11.4706Z" stroke="#1875F7" stroke-width="1.5" stroke-linecap="round"/>
</svg>
