<svg width="26" height="22" viewBox="0 0 26 22" fill="none" xmlns="http://www.w3.org/2000/svg">
<path d="M0 1.57143C0 1.15466 0.165561 0.754961 0.460261 0.460261C0.754961 0.165561 1.15466 0 1.57143 0H23.5714C23.9882 0 24.3879 0.165561 24.6826 0.460261C24.9773 0.754961 25.1429 1.15466 25.1429 1.57143V4.71429C25.1429 5.13105 24.9773 5.53075 24.6826 5.82545C24.3879 6.12015 23.9882 6.28571 23.5714 6.28571V18.0714C23.5714 19.1134 23.1575 20.1126 22.4208 20.8493C21.684 21.5861 20.6848 22 19.6429 22H5.5C4.45808 22 3.45883 21.5861 2.72208 20.8493C1.98533 20.1126 1.57143 19.1134 1.57143 18.0714V6.28571C1.15466 6.28571 0.754961 6.12015 0.460261 5.82545C0.165561 5.53075 0 5.13105 0 4.71429V1.57143ZM3.14286 6.28571V18.0714C3.14286 18.6966 3.3912 19.2961 3.83325 19.7382C4.2753 20.1802 4.87485 20.4286 5.5 20.4286H19.6429C20.268 20.4286 20.8676 20.1802 21.3096 19.7382C21.7517 19.2961 22 18.6966 22 18.0714V6.28571H3.14286ZM23.5714 1.57143H1.57143V4.71429H23.5714V1.57143ZM7.85714 10.2143C7.85714 10.0059 7.93992 9.80605 8.08727 9.6587C8.23462 9.51135 8.43447 9.42857 8.64286 9.42857H16.5C16.7084 9.42857 16.9082 9.51135 17.0556 9.6587C17.2029 9.80605 17.2857 10.0059 17.2857 10.2143C17.2857 10.4227 17.2029 10.6225 17.0556 10.7699C16.9082 10.9172 16.7084 11 16.5 11H8.64286C8.43447 11 8.23462 10.9172 8.08727 10.7699C7.93992 10.6225 7.85714 10.4227 7.85714 10.2143Z" fill="#002933"/>
</svg>
