<svg width="18" height="16" viewBox="0 0 18 16" fill="none" xmlns="http://www.w3.org/2000/svg">
<path d="M9.3329 16C9.06527 15.9997 8.80394 15.9188 8.5829 15.7679C5.30832 13.545 3.8904 12.0208 3.10832 11.0679C1.44165 9.03667 0.643734 6.95125 0.666234 4.69292C0.692484 2.105 2.76873 0 5.29457 0C7.13123 0 8.40332 1.03458 9.14415 1.89625C9.16762 1.92327 9.19661 1.94494 9.22918 1.95979C9.26174 1.97463 9.29711 1.98232 9.3329 1.98232C9.36869 1.98232 9.40406 1.97463 9.43662 1.95979C9.46919 1.94494 9.49818 1.92327 9.52165 1.89625C10.2625 1.03375 11.5346 0 13.3712 0C15.8971 0 17.9733 2.105 17.9996 4.69333C18.0221 6.95208 17.2233 9.0375 15.5575 11.0683C14.7754 12.0213 13.3575 13.5454 10.0829 15.7683C9.86181 15.9191 9.60048 15.9998 9.3329 16Z" fill="#FF3B3B"/>
</svg>
