<svg width="11" height="12" viewBox="0 0 11 12" fill="none" xmlns="http://www.w3.org/2000/svg">
<path d="M3.93419 2.37441C4.63102 1.1248 4.97916 0.5 5.5 0.5C6.02084 0.5 6.36898 1.1248 7.06581 2.37441L7.24621 2.69781C7.4442 3.05312 7.5432 3.23077 7.6972 3.34792C7.85119 3.46507 8.04369 3.50852 8.42868 3.59542L8.77847 3.67462C10.1314 3.98097 10.8074 4.13387 10.9685 4.65143C11.1291 5.16843 10.6682 5.70798 9.7459 6.78654L9.50721 7.06539C9.24541 7.37175 9.11397 7.5252 9.05512 7.7144C8.99627 7.90415 9.01607 8.10875 9.05567 8.5174L9.09197 8.88975C9.23111 10.3291 9.30096 11.0485 8.87967 11.3681C8.45838 11.6876 7.8248 11.3961 6.55873 10.8131L6.23038 10.6624C5.87069 10.4963 5.69085 10.4138 5.5 10.4138C5.30915 10.4138 5.12931 10.4963 4.76962 10.6624L4.44182 10.8131C3.1752 11.3961 2.54162 11.6876 2.12088 11.3686C1.69904 11.0485 1.76889 10.3291 1.90803 8.88975L1.94433 8.51795C1.98393 8.10875 2.00373 7.90415 1.94433 7.71495C1.88604 7.5252 1.75459 7.37174 1.49279 7.06594L1.2541 6.78654C0.331772 5.70853 -0.129118 5.16898 0.0314785 4.65143C0.192075 4.13387 0.869109 3.98042 2.22208 3.67462L2.57187 3.59542C2.95631 3.50852 3.14826 3.46507 3.3028 3.34792C3.45735 3.23077 3.5558 3.05312 3.75379 2.69781L3.93419 2.37441Z" fill="#F4B410"/>
</svg>
