<svg width="24" height="18" viewBox="0 0 24 18" fill="none" xmlns="http://www.w3.org/2000/svg">
<path d="M11.9966 10.2408L17.9824 4.25521C18.1469 4.0904 18.3667 3.99973 18.6011 3.99973C18.8356 3.99973 19.0553 4.0904 19.22 4.25521L19.7443 4.7797C19.9092 4.94425 20 5.16422 20 5.39863C20 5.63304 19.9092 5.85274 19.7443 6.01743L12.6176 13.1442C12.4524 13.3095 12.2317 13.4001 11.997 13.3994C11.7613 13.4001 11.5408 13.3097 11.3755 13.1442L4.25574 6.02406C4.0908 5.85938 4 5.63967 4 5.40513C4 5.17073 4.0908 4.95102 4.25574 4.78621L4.77997 4.26185C5.12117 3.92065 5.67662 3.92065 6.01769 4.26185L11.9966 10.2408Z" fill="#49495A"/>
</svg>
