<svg width="18" height="16" viewBox="0 0 18 16" fill="none" xmlns="http://www.w3.org/2000/svg">
<path d="M0.916221 4.69545C0.941138 2.23896 2.9114 0.25 5.29457 0.25C7.02882 0.25 8.23781 1.22555 8.95458 2.05924L8.9554 2.06018C9.00234 2.11422 9.06033 2.15756 9.12545 2.18725L9.22918 1.95979L9.12545 2.18725C9.19058 2.21695 9.26132 2.23232 9.3329 2.23232C9.40448 2.23232 9.47522 2.21695 9.54035 2.18725C9.60547 2.15756 9.66347 2.11422 9.71041 2.06018L9.7113 2.05914C10.428 1.22479 11.6369 0.25 13.3712 0.25C15.7544 0.25 17.7247 2.23894 17.7496 4.69587C17.7714 6.88661 16.9992 8.91656 15.3642 10.9098C14.5985 11.8428 13.1987 13.351 9.94249 15.5615L9.94207 15.5618C9.76252 15.6842 9.55031 15.7498 9.333 15.75C9.11563 15.7497 8.90338 15.684 8.72384 15.5614L8.72331 15.5611C5.46701 13.3506 4.06729 11.8423 3.30157 10.9093C1.6658 8.91572 0.894398 6.88583 0.916221 4.69545ZM0.916221 4.69545L0.666234 4.69292L0.916221 4.69545Z" stroke="#002933" stroke-width="0.5"/>
</svg>
