<svg width="70" height="70" viewBox="0 0 70 70" fill="none" xmlns="http://www.w3.org/2000/svg">
<g filter="url(#filter0_d_2110_5784)">
<path d="M38.6547 17.441L35.0001 39.3744L31.3455 17.441C31.2578 16.9107 31.2866 16.3676 31.4299 15.8495C31.5732 15.3314 31.8276 14.8507 32.1753 14.4408C32.5231 14.0309 32.9558 13.7015 33.4436 13.4757C33.9314 13.2498 34.4625 13.1328 35.0001 13.1328C35.5376 13.1328 36.0687 13.2498 36.5565 13.4757C37.0443 13.7015 37.4771 14.0309 37.8248 14.4408C38.1725 14.8507 38.4269 15.3314 38.5702 15.8495C38.7135 16.3676 38.7423 16.9107 38.6547 17.441Z" stroke="#FF3B3B" stroke-width="7" stroke-linecap="round" stroke-linejoin="round" shape-rendering="crispEdges"/>
</g>
<path d="M35.0002 58.3333C36.611 58.3333 37.9168 57.0275 37.9168 55.4167C37.9168 53.8058 36.611 52.5 35.0002 52.5C33.3893 52.5 32.0835 53.8058 32.0835 55.4167C32.0835 57.0275 33.3893 58.3333 35.0002 58.3333Z" stroke="#FF3B3B" stroke-width="2"/>
<defs>
<filter id="filter0_d_2110_5784" x="23.7959" y="9.63281" width="22.4082" height="41.2422" filterUnits="userSpaceOnUse" color-interpolation-filters="sRGB">
<feFlood flood-opacity="0" result="BackgroundImageFix"/>
<feColorMatrix in="SourceAlpha" type="matrix" values="0 0 0 0 0 0 0 0 0 0 0 0 0 0 0 0 0 0 127 0" result="hardAlpha"/>
<feOffset dy="4"/>
<feGaussianBlur stdDeviation="2"/>
<feComposite in2="hardAlpha" operator="out"/>
<feColorMatrix type="matrix" values="0 0 0 0 0 0 0 0 0 0 0 0 0 0 0 0 0 0 0.25 0"/>
<feBlend mode="normal" in2="BackgroundImageFix" result="effect1_dropShadow_2110_5784"/>
<feBlend mode="normal" in="SourceGraphic" in2="effect1_dropShadow_2110_5784" result="shape"/>
</filter>
</defs>
</svg>
