<svg width="23" height="17" viewBox="0 0 23 17" fill="none" xmlns="http://www.w3.org/2000/svg">
<path d="M0.106445 1.16667C0.106445 0.923551 0.203023 0.690394 0.374931 0.518486C0.546839 0.346577 0.779997 0.25 1.02311 0.25H21.1898C21.4329 0.25 21.6661 0.346577 21.838 0.518486C22.0099 0.690394 22.1064 0.923551 22.1064 1.16667C22.1064 1.40978 22.0099 1.64294 21.838 1.81485C21.6661 1.98676 21.4329 2.08333 21.1898 2.08333H1.02311C0.779997 2.08333 0.546839 1.98676 0.374931 1.81485C0.203023 1.64294 0.106445 1.40978 0.106445 1.16667ZM3.77311 8.5C3.77311 8.25688 3.86969 8.02373 4.0416 7.85182C4.21351 7.67991 4.44666 7.58333 4.68978 7.58333H17.5231C17.7662 7.58333 17.9994 7.67991 18.1713 7.85182C18.3432 8.02373 18.4398 8.25688 18.4398 8.5C18.4398 8.74312 18.3432 8.97627 18.1713 9.14818C17.9994 9.32009 17.7662 9.41667 17.5231 9.41667H4.68978C4.44666 9.41667 4.21351 9.32009 4.0416 9.14818C3.86969 8.97627 3.77311 8.74312 3.77311 8.5ZM7.43978 15.8333C7.43978 15.5902 7.53636 15.3571 7.70826 15.1852C7.88017 15.0132 8.11333 14.9167 8.35645 14.9167H13.8564C14.0996 14.9167 14.3327 15.0132 14.5046 15.1852C14.6765 15.3571 14.7731 15.5902 14.7731 15.8333C14.7731 16.0764 14.6765 16.3096 14.5046 16.4815C14.3327 16.6534 14.0996 16.75 13.8564 16.75H8.35645C8.11333 16.75 7.88017 16.6534 7.70826 16.4815C7.53636 16.3096 7.43978 16.0764 7.43978 15.8333Z" fill="black"/>
</svg>
