<svg width="8" height="4" viewBox="0 0 8 4" fill="none" xmlns="http://www.w3.org/2000/svg">
<path d="M7.00022 2.33392C6.91182 2.33392 6.82703 2.2988 6.76452 2.23629C6.70201 2.17378 6.66689 2.08899 6.66689 2.00059V1.13726L4.57022 3.23726C4.53924 3.2685 4.50237 3.2933 4.46175 3.31022C4.42113 3.32714 4.37756 3.33586 4.33356 3.33586C4.28955 3.33586 4.24599 3.32714 4.20537 3.31022C4.16475 3.2933 4.12788 3.2685 4.09689 3.23726L3.00022 2.13726L1.23689 3.90392C1.17412 3.96669 1.08899 4.00195 1.00022 4.00195C0.911457 4.00195 0.826326 3.96669 0.763558 3.90392C0.70079 3.84115 0.665527 3.75602 0.665527 3.66726C0.665527 3.57849 0.70079 3.49336 0.763558 3.43059L2.76356 1.43059C2.79455 1.39935 2.83141 1.37455 2.87203 1.35763C2.91265 1.3407 2.95622 1.33199 3.00022 1.33199C3.04423 1.33199 3.0878 1.3407 3.12842 1.35763C3.16904 1.37455 3.2059 1.39935 3.23689 1.43059L4.33356 2.53059L6.19689 0.667256H5.33356C5.24515 0.667256 5.16037 0.632137 5.09786 0.569625C5.03534 0.507113 5.00022 0.422328 5.00022 0.333923C5.00022 0.245517 5.03534 0.160732 5.09786 0.0982201C5.16037 0.035708 5.24515 0.000589371 5.33356 0.000589371H7.00022C7.04378 0.0011158 7.08682 0.0101755 7.12689 0.027256C7.20834 0.0610809 7.27307 0.125806 7.30689 0.207256C7.32397 0.24733 7.33303 0.290364 7.33356 0.333923V2.00059C7.33356 2.08899 7.29844 2.17378 7.23593 2.23629C7.17341 2.2988 7.08863 2.33392 7.00022 2.33392Z" fill="#186A04"/>
</svg>
