<svg width="25" height="24" viewBox="0 0 25 24" fill="none" xmlns="http://www.w3.org/2000/svg">
<circle cx="12.5" cy="12" r="12" fill="#F7FAFF"/>
<g clip-path="url(#clip0_2410_12537)">
<path d="M15.9885 13.8584C15.9355 13.1643 15.7207 12.5155 15.4247 11.8885C14.9886 10.9651 14.4069 10.1255 13.8544 9.26851C13.1781 8.21962 12.4025 7.22395 12.0038 6C11.7096 6.87896 11.2518 7.64903 10.7637 8.4042C10.3358 9.06619 9.90528 9.72646 9.47218 10.385C8.9684 11.1517 8.50719 11.9405 8.22991 12.8193C7.88692 13.9072 7.89812 14.9817 8.47806 15.986C9.29148 17.3942 10.5586 18.0391 12.2039 17.9988C14.1463 17.9509 16.1781 16.3412 15.9885 13.8584ZM12.0008 16.9792C11.3805 16.9792 10.7742 16.7988 10.2584 16.4607C9.74268 16.1227 9.34071 15.6422 9.10334 15.0801C8.86597 14.518 8.80386 13.8994 8.92487 13.3027C9.04588 12.7059 9.34457 12.1577 9.78318 11.7275C10.2218 11.2973 10.7806 11.0043 11.389 10.8856C11.9973 10.7669 12.6279 10.8278 13.201 11.0606C13.774 11.2935 14.2638 11.6878 14.6084 12.1937C14.953 12.6996 15.137 13.2944 15.137 13.9028C15.137 14.7187 14.8066 15.5012 14.2184 16.0781C13.6303 16.6551 12.8326 16.9792 12.0008 16.9792Z" fill="#1875F7"/>
<path d="M12.4306 14.335H12.3736L12.2419 13.593C12.2343 13.5509 12.2131 13.5123 12.1815 13.4828C12.1499 13.4533 12.1095 13.4345 12.0662 13.4292C11.5335 13.3673 10.9952 13.3673 10.4625 13.4292C10.4191 13.4341 10.3785 13.4528 10.3468 13.4823C10.3152 13.5119 10.2942 13.5507 10.287 13.593C10.2538 13.7805 10.2206 13.9677 10.1875 14.1546L10.1551 14.3353H10.1128C10.0861 14.3352 10.0596 14.3404 10.0349 14.3504C10.0102 14.3604 9.98774 14.3751 9.96883 14.3936C9.94992 14.4121 9.93492 14.4341 9.92468 14.4583C9.91445 14.4826 9.90918 14.5085 9.90918 14.5347V15.2325C9.90914 15.2818 9.92768 15.3293 9.96122 15.366C9.99477 15.4026 10.041 15.4258 10.0909 15.431V15.766H10.6439V15.4296H11.9104V15.766H12.4532V15.431C12.5031 15.4256 12.5491 15.4023 12.5825 15.3656C12.6159 15.329 12.6343 15.2815 12.6342 15.2323V14.5347C12.6342 14.5085 12.629 14.4825 12.6187 14.4583C12.6085 14.434 12.5935 14.412 12.5746 14.3934C12.5557 14.3749 12.5332 14.3602 12.5085 14.3502C12.4838 14.3401 12.4573 14.335 12.4306 14.335ZM10.4045 15.0035C10.3739 15.0035 10.344 14.9946 10.3185 14.9779C10.2931 14.9613 10.2732 14.9376 10.2615 14.9098C10.2498 14.8821 10.2467 14.8516 10.2526 14.8221C10.2586 14.7927 10.2733 14.7656 10.2949 14.7444C10.3166 14.7231 10.3441 14.7086 10.3741 14.7027C10.4042 14.6968 10.4353 14.6998 10.4636 14.7113C10.4919 14.7227 10.5161 14.7422 10.5331 14.7671C10.5501 14.792 10.5593 14.8214 10.5593 14.8514C10.5592 14.8916 10.543 14.9301 10.5141 14.9586C10.4852 14.9871 10.446 15.0033 10.405 15.0035H10.4045ZM11.6881 14.9466C11.6881 14.9537 11.6866 14.9606 11.6836 14.967C11.6807 14.9734 11.6763 14.9791 11.6709 14.9837C11.6614 14.9916 11.6493 14.9959 11.6368 14.9957H10.9135C10.9003 14.9957 10.8876 14.9906 10.8783 14.9814C10.869 14.9722 10.8637 14.9598 10.8637 14.9469V14.7479C10.8637 14.7349 10.869 14.7225 10.8783 14.7134C10.8876 14.7042 10.9003 14.6991 10.9135 14.6991H11.6391C11.6523 14.6991 11.6649 14.7042 11.6743 14.7134C11.6836 14.7225 11.6888 14.7349 11.6888 14.7479V14.9464L11.6881 14.9466ZM10.5431 14.2562L10.5533 14.199L10.6258 13.7945C10.6288 13.7761 10.6379 13.7591 10.6517 13.7463C10.6655 13.7335 10.6833 13.7256 10.7022 13.7237C11.0834 13.6797 11.4686 13.6797 11.8499 13.7237C11.8688 13.7256 11.8866 13.7336 11.9005 13.7465C11.9143 13.7593 11.9235 13.7763 11.9265 13.7947L12.0092 14.2562H10.5431ZM12.1461 15.0035C12.1155 15.0035 12.0855 14.9946 12.0601 14.9779C12.0346 14.9613 12.0148 14.9376 12.0031 14.9098C11.9913 14.8821 11.9883 14.8516 11.9942 14.8221C12.0002 14.7927 12.0149 14.7656 12.0365 14.7444C12.0581 14.7231 12.0857 14.7086 12.1157 14.7027C12.1457 14.6968 12.1769 14.6998 12.2051 14.7113C12.2334 14.7227 12.2576 14.7422 12.2747 14.7671C12.2917 14.792 12.3008 14.8214 12.3009 14.8514C12.3008 14.8918 12.2844 14.9305 12.2553 14.959C12.2262 14.9875 12.1867 15.0035 12.1456 15.0035H12.1461Z" fill="#1875F7"/>
<path d="M14.0912 13.1229H14.0511V12.6211L13.8212 12.3836L13.7978 12.5708L13.8801 12.6568V13.1229H13.8401V13.6356H13.8898V14.4025C13.8891 14.4416 13.8746 14.4794 13.8489 14.5093C13.8231 14.5393 13.7877 14.5597 13.7485 14.567C13.7249 14.5704 13.7008 14.5688 13.6779 14.5623C13.6551 14.5558 13.6339 14.5445 13.6158 14.5292C13.5978 14.514 13.5832 14.4951 13.5733 14.4739C13.5633 14.4526 13.5581 14.4295 13.5581 14.4061V13.6248H13.3169V13.5557H13.4401L13.6733 12.2148H11.4297L11.5942 13.16C11.7147 13.1653 11.8351 13.1735 11.9554 13.1844L11.8466 12.5593H13.2624L13.1494 13.21H12.219C12.2921 13.2372 12.3567 13.2826 12.4066 13.3417C12.4564 13.4008 12.4897 13.4716 12.5032 13.5472L12.6053 14.1239C12.6878 14.1569 12.7585 14.2133 12.8082 14.2859C12.8579 14.3585 12.8844 14.4439 12.8843 14.5314V15.2294C12.8843 15.2438 12.8835 15.2581 12.882 15.2724H13.5685V14.8285H13.3174V13.7645H13.4169V14.3993C13.4154 14.4395 13.4222 14.4795 13.4367 14.5171C13.4513 14.5546 13.4734 14.5889 13.5017 14.618C13.53 14.6471 13.5639 14.6703 13.6015 14.6862C13.6391 14.7022 13.6796 14.7106 13.7205 14.711C13.7615 14.7114 13.8021 14.7037 13.84 14.6884C13.8779 14.6731 13.9123 14.6506 13.9411 14.622C13.97 14.5935 13.9927 14.5596 14.0079 14.5223C14.0232 14.485 14.0307 14.4451 14.03 14.4049V13.6356H14.0902V13.1229H14.0912Z" fill="#1875F7"/>
</g>
<defs>
<clipPath id="clip0_2410_12537">
<rect width="8" height="12" fill="white" transform="translate(8 6)"/>
</clipPath>
</defs>
</svg>
