<svg width="10" height="10" viewBox="0 0 10 10" fill="none" xmlns="http://www.w3.org/2000/svg">
<path d="M5.12477 9.5C4.97423 9.49981 4.82723 9.45432 4.7029 9.36945C2.86094 8.11906 2.06337 7.26172 1.62344 6.7257C0.685944 5.58313 0.237116 4.41008 0.249772 3.13977C0.264538 1.68406 1.43243 0.5 2.85321 0.5C3.88633 0.5 4.60188 1.08195 5.0186 1.56664C5.0318 1.58184 5.04811 1.59403 5.06643 1.60238C5.08474 1.61073 5.10464 1.61505 5.12477 1.61505C5.1449 1.61505 5.1648 1.61073 5.18312 1.60238C5.20143 1.59403 5.21774 1.58184 5.23094 1.56664C5.64766 1.08148 6.36321 0.5 7.39633 0.5C8.81712 0.5 9.98501 1.68406 9.99977 3.14C10.0124 4.41055 9.56313 5.58359 8.6261 6.72594C8.18618 7.26195 7.3886 8.1193 5.54665 9.36969C5.42228 9.45447 5.27529 9.49988 5.12477 9.5Z" fill="#FF3B3B"/>
</svg>
