<svg width="16" height="23" viewBox="0 0 16 23" fill="none" xmlns="http://www.w3.org/2000/svg">
<path d="M7.98969 11.3368C7.95969 11.3368 7.93969 11.3368 7.90969 11.3368C7.85969 11.3268 7.78969 11.3268 7.72969 11.3368C4.82969 11.2468 2.63969 8.9668 2.63969 6.1568C2.63969 3.2968 4.96969 0.966797 7.82969 0.966797C10.6897 0.966797 13.0197 3.2968 13.0197 6.1568C13.0097 8.9668 10.8097 11.2468 8.01969 11.3368C8.00969 11.3368 7.99969 11.3368 7.98969 11.3368ZM7.82969 2.4668C5.79969 2.4668 4.13969 4.1268 4.13969 6.1568C4.13969 8.1568 5.69969 9.7668 7.68969 9.8368C7.73969 9.8268 7.87969 9.8268 8.00969 9.8368C9.96969 9.7468 11.5097 8.1368 11.5197 6.1568C11.5197 4.1268 9.85969 2.4668 7.82969 2.4668Z" fill="#768589"/>
<path d="M7.99969 22.2668C6.03969 22.2668 4.06969 21.7668 2.57969 20.7668C1.18969 19.8468 0.429688 18.5868 0.429688 17.2168C0.429688 15.8468 1.18969 14.5768 2.57969 13.6468C5.57969 11.6568 10.4397 11.6568 13.4197 13.6468C14.7997 14.5668 15.5697 15.8268 15.5697 17.1968C15.5697 18.5668 14.8097 19.8368 13.4197 20.7668C11.9197 21.7668 9.95969 22.2668 7.99969 22.2668ZM3.40969 14.9068C2.44969 15.5468 1.92969 16.3668 1.92969 17.2268C1.92969 18.0768 2.45969 18.8968 3.40969 19.5268C5.89969 21.1968 10.0997 21.1968 12.5897 19.5268C13.5497 18.8868 14.0697 18.0668 14.0697 17.2068C14.0697 16.3568 13.5397 15.5368 12.5897 14.9068C10.0997 13.2468 5.89969 13.2468 3.40969 14.9068Z" fill="#768589"/>
</svg>
