<svg width="25" height="28" viewBox="0 0 25 28" fill="none" xmlns="http://www.w3.org/2000/svg">
<path d="M22.7038 14.4909L22.6863 14.4762L22.6677 14.4629C22.2997 14.1984 21.845 14.0833 21.3955 14.141C20.9507 14.1981 20.5437 14.4201 20.2549 14.7628L18.5982 16.5941L18.5699 16.6254C18.3775 16.4238 18.1309 16.2603 17.8238 16.1591C17.5217 16.0544 17.2029 15.9512 16.871 15.8438C16.3778 15.6841 15.8555 15.5151 15.3156 15.3175C14.4252 14.9916 13.6434 14.6397 13.1583 14.2569L13.148 14.2488L13.1374 14.2411C12.2439 13.5973 11.2825 13.3059 10.3082 13.4428C9.34184 13.5786 8.4506 14.1232 7.66305 14.9808L7.35158 15.32L7.59867 15.7086C7.87798 16.1479 8.09013 16.6264 8.22809 17.1283L8.23441 17.1513L8.24253 17.1737L9.96159 21.9177L9.96819 21.936L9.97596 21.9537C10.0874 22.2085 10.1568 22.4797 10.1814 22.7567L10.2115 23.0941L10.516 23.2427C10.6887 23.3269 10.8601 23.4022 11.0331 23.4723L14.132 24.7804L14.1342 24.7813C14.5757 24.9656 15.0569 25.0346 15.5324 24.9818C16.0009 24.9297 16.4487 24.7611 16.8351 24.4915C18.3782 23.5442 19.7745 22.3764 20.9799 21.0251L20.98 21.0252L20.9878 21.0161C21.8877 19.9656 22.6661 18.817 23.3084 17.592C23.5769 17.084 23.6635 16.4994 23.5537 15.9353C23.4438 15.3709 23.1438 14.8611 22.7038 14.4909ZM14.6016 19.6946C14.6016 19.6946 14.6036 19.6949 14.6083 19.6957L14.6062 19.6954C14.6032 19.6949 14.6016 19.6946 14.6016 19.6946ZM14.6347 19.4879L14.6258 19.4939L14.6347 19.4879Z" stroke="#768589" stroke-width="1.2"/>
<path d="M3.71257 16.3831L3.70181 16.3882L3.69125 16.3936L2.45946 17.0329L2.44541 17.0402L2.43177 17.0482C2.00403 17.2997 1.6796 17.695 1.5164 18.1635C1.35396 18.6299 1.36178 19.1387 1.53835 19.5997L3.70944 25.5887C3.78321 25.8318 3.90761 26.0566 4.07454 26.2484C4.24619 26.4455 4.45868 26.603 4.69728 26.7097C4.93588 26.8165 5.19486 26.8701 5.45624 26.8667C5.71762 26.8634 5.97514 26.8031 6.21091 26.6903L6.21929 26.6863L6.22755 26.682L7.45545 26.0466L7.4699 26.0391L7.48394 26.0309C7.91739 25.7759 8.2447 25.3735 8.40613 24.8972C8.56632 24.4246 8.55257 23.9105 8.36759 23.4473C8.28839 23.2301 7.93567 22.2544 7.53682 21.1511C6.96828 19.5784 6.30602 17.7464 6.20863 17.4825C6.1334 17.241 6.00834 17.0179 5.84143 16.8276C5.66982 16.6319 5.45801 16.4756 5.22047 16.3693C4.98293 16.263 4.72525 16.2092 4.46502 16.2116C4.20479 16.214 3.94813 16.2725 3.71257 16.3831Z" stroke="#768589" stroke-width="1.2"/>
<path d="M15.3091 11.9513C12.7454 11.9513 10.6597 9.86568 10.6597 7.30196C10.644 4.29169 13.5124 1.78576 14.747 0.845377C15.0779 0.593208 15.5403 0.593208 15.8712 0.845377C17.1058 1.80152 19.9742 4.33897 19.9585 7.30721C19.9585 9.86568 17.8728 11.9513 15.3091 11.9513ZM15.3091 1.44428C15.2828 1.44428 15.2513 1.45479 15.225 1.4758C14.3372 2.1535 11.4373 4.57538 11.453 7.30196C11.453 9.43489 13.1867 11.1633 15.3144 11.1633C17.442 11.1633 19.1757 9.43489 19.1757 7.30721C19.1915 4.61741 16.2863 2.16401 15.3932 1.4758C15.3616 1.45479 15.3354 1.44428 15.3091 1.44428Z" stroke="#768589"/>
</svg>
