<svg width="8" height="8" viewBox="0 0 8 8" fill="none" xmlns="http://www.w3.org/2000/svg">
<path d="M7.00022 3.66608C6.91182 3.66608 6.82703 3.7012 6.76452 3.76371C6.70201 3.82622 6.66689 3.91101 6.66689 3.99941V4.86274L4.57022 2.76274C4.53924 2.7315 4.50237 2.7067 4.46175 2.68978C4.42113 2.67286 4.37756 2.66414 4.33356 2.66414C4.28955 2.66414 4.24599 2.67286 4.20537 2.68978C4.16475 2.7067 4.12788 2.7315 4.09689 2.76274L3.00022 3.86274L1.23689 2.09608C1.17412 2.03331 1.08899 1.99805 1.00022 1.99805C0.911457 1.99805 0.826326 2.03331 0.763558 2.09608C0.70079 2.15885 0.665527 2.24398 0.665527 2.33274C0.665527 2.42151 0.70079 2.50664 0.763558 2.56941L2.76356 4.56941C2.79455 4.60065 2.83141 4.62545 2.87203 4.64237C2.91265 4.6593 2.95622 4.66801 3.00022 4.66801C3.04423 4.66801 3.0878 4.6593 3.12842 4.64237C3.16904 4.62545 3.2059 4.60065 3.23689 4.56941L4.33356 3.46941L6.19689 5.33274H5.33356C5.24515 5.33274 5.16037 5.36786 5.09786 5.43037C5.03534 5.49289 5.00022 5.57767 5.00022 5.66608C5.00022 5.75448 5.03534 5.83927 5.09786 5.90178C5.16037 5.96429 5.24515 5.99941 5.33356 5.99941H7.00022C7.04378 5.99888 7.08682 5.98982 7.12689 5.97274C7.20834 5.93892 7.27307 5.87419 7.30689 5.79274C7.32397 5.75267 7.33303 5.70964 7.33356 5.66608V3.99941C7.33356 3.91101 7.29844 3.82622 7.23593 3.76371C7.17341 3.7012 7.08863 3.66608 7.00022 3.66608Z" fill="#F23006"/>
</svg>
