<svg width="14" height="13" viewBox="0 0 14 13" fill="none" xmlns="http://www.w3.org/2000/svg">
<path d="M13.4284 0.589231C13.2504 0.449531 13.043 0.352238 12.8219 0.30475C12.6007 0.257263 12.3716 0.260831 12.1521 0.315184L9.38812 1.01205C9.27445 1.03525 9.15727 1.03525 9.0436 1.01205L5.14431 0.0411378C4.90733 -0.0137126 4.66095 -0.0137126 4.42396 0.0411378L1.12757 0.871108C0.805338 0.950101 0.518997 1.13508 0.314522 1.39636C0.110047 1.65763 -0.000699 1.98004 6.49132e-05 2.31181V11.0422C-0.00206922 11.2688 0.0484462 11.4929 0.147633 11.6967C0.246819 11.9005 0.391968 12.0785 0.571648 12.2166C0.74955 12.3563 0.956966 12.4536 1.17812 12.5011C1.39928 12.5486 1.62835 12.545 1.84792 12.4907L4.61188 11.7938C4.72555 11.7706 4.84273 11.7706 4.9564 11.7938L8.85569 12.7647C8.97412 12.7899 9.09479 12.803 9.21586 12.8039C9.3369 12.8025 9.45752 12.7894 9.57604 12.7647L12.8724 11.9348C13.1947 11.8558 13.481 11.6708 13.6855 11.4095C13.89 11.1482 14.0007 10.8258 13.9999 10.4941V1.76372C14.0021 1.53707 13.9516 1.31301 13.8524 1.10921C13.7532 0.905397 13.608 0.7274 13.4284 0.589231ZM4.39264 11.0422L1.66 11.7234C1.55611 11.7512 1.4472 11.7545 1.34178 11.7332C1.23636 11.7119 1.13731 11.6665 1.05238 11.6005C0.967445 11.5345 0.898935 11.4498 0.85221 11.3529C0.805486 11.2561 0.781817 11.1497 0.783055 11.0422V2.31181C0.783525 2.15525 0.836115 2.00331 0.932526 1.87996C1.02894 1.75661 1.16368 1.66888 1.31549 1.63061L4.39264 0.855448V11.0422ZM8.82437 11.9504L5.17563 11.0422V0.855448L8.82437 1.76372V11.9504ZM13.2169 10.4941C13.2165 10.6506 13.1639 10.8026 13.0675 10.9259C12.9711 11.0493 12.8363 11.137 12.6845 11.1753L9.60736 11.9504V1.76372L12.34 1.08252C12.4446 1.05515 12.5541 1.05222 12.66 1.07394C12.7659 1.09566 12.8654 1.14146 12.9507 1.20779C13.0348 1.27384 13.1025 1.35832 13.1486 1.45472C13.1948 1.55112 13.2182 1.65684 13.2169 1.76372V10.4941Z" fill="#1875F7"/>
</svg>
