<svg width="23" height="22" viewBox="0 0 23 22" fill="none" xmlns="http://www.w3.org/2000/svg">
<path d="M7.72211 3.61767L7.09343 3.76275C7.15037 4.01053 7.15748 4.26716 7.11436 4.51771C7.07124 4.76827 6.97875 5.00775 6.84225 5.22224C6.70576 5.43673 6.52799 5.62195 6.31928 5.76713C6.11057 5.9123 5.87508 6.01455 5.62651 6.06791C5.12246 6.17394 4.59692 6.07798 4.16286 5.80067C3.7288 5.52335 3.42086 5.08681 3.30523 4.58487L2.04788 4.84279C1.87545 4.88041 1.71243 4.9526 1.56868 5.055C1.42494 5.15739 1.30344 5.28786 1.21153 5.43853C1.11962 5.5892 1.05921 5.75694 1.03395 5.93161C1.00869 6.10628 1.0191 6.28425 1.06456 6.45479C1.06456 6.45479 1.64488 9.14682 2.32192 12.1774M19.8121 3.60155C19.7158 3.87298 19.5653 4.12203 19.3699 4.33361C19.1745 4.54519 18.9382 4.71489 18.6752 4.83244C18.4123 4.94999 18.1282 5.01294 17.8402 5.01746C17.5523 5.02199 17.2664 4.96801 16.9999 4.85879C16.7334 4.74957 16.4918 4.58738 16.2898 4.38205C16.0879 4.17672 15.9297 3.93252 15.8249 3.66426C15.72 3.39599 15.6708 3.10924 15.6801 2.82137C15.6893 2.53351 15.7569 2.25052 15.8788 1.98956L14.5731 1.377C14.2244 1.2317 13.8325 1.22976 13.4825 1.3716C13.1324 1.51344 12.8524 1.78762 12.7032 2.13464L7.28687 14.8855L6.57759 16.4975C6.43229 16.8462 6.43035 17.2381 6.57219 17.5882C6.71404 17.9382 6.98821 18.2183 7.33523 18.3675L13.8799 21.1562C14.2286 21.3015 14.6205 21.3034 14.9706 21.1616C15.3207 21.0198 15.6007 20.7456 15.7499 20.3986L21.8754 5.98731C22.0105 5.65219 22.0142 5.27845 21.8857 4.94076C21.7572 4.60307 21.506 4.3263 21.1823 4.16575L19.8121 3.60155Z" stroke="#768589" stroke-width="1.3" stroke-linecap="round" stroke-linejoin="round"/>
</svg>
