<svg width="16" height="23" viewBox="0 0 16 23" fill="none" xmlns="http://www.w3.org/2000/svg">
<path d="M7.99018 11.3368C7.96018 11.3368 7.94018 11.3368 7.91018 11.3368C7.86018 11.3268 7.79018 11.3268 7.73018 11.3368C4.83018 11.2468 2.64018 8.9668 2.64018 6.1568C2.64018 3.2968 4.97018 0.966797 7.83018 0.966797C10.6902 0.966797 13.0202 3.2968 13.0202 6.1568C13.0102 8.9668 10.8102 11.2468 8.02018 11.3368C8.01018 11.3368 8.00018 11.3368 7.99018 11.3368ZM7.83018 2.4668C5.80018 2.4668 4.14018 4.1268 4.14018 6.1568C4.14018 8.1568 5.70018 9.7668 7.69018 9.8368C7.74018 9.8268 7.88018 9.8268 8.01018 9.8368C9.97018 9.7468 11.5102 8.1368 11.5202 6.1568C11.5202 4.1268 9.86018 2.4668 7.83018 2.4668Z" fill="#768589"/>
<path d="M8.00018 22.2668C6.04018 22.2668 4.07018 21.7668 2.58018 20.7668C1.19018 19.8468 0.430176 18.5868 0.430176 17.2168C0.430176 15.8468 1.19018 14.5768 2.58018 13.6468C5.58018 11.6568 10.4402 11.6568 13.4202 13.6468C14.8002 14.5668 15.5702 15.8268 15.5702 17.1968C15.5702 18.5668 14.8102 19.8368 13.4202 20.7668C11.9202 21.7668 9.96018 22.2668 8.00018 22.2668ZM3.41018 14.9068C2.45018 15.5468 1.93018 16.3668 1.93018 17.2268C1.93018 18.0768 2.46018 18.8968 3.41018 19.5268C5.90018 21.1968 10.1002 21.1968 12.5902 19.5268C13.5502 18.8868 14.0702 18.0668 14.0702 17.2068C14.0702 16.3568 13.5402 15.5368 12.5902 14.9068C10.1002 13.2468 5.90018 13.2468 3.41018 14.9068Z" fill="#768589"/>
</svg>
