<svg width="80" height="80" viewBox="0 0 80 80" fill="none" xmlns="http://www.w3.org/2000/svg">
<path d="M40 0C32.0888 0 24.3552 2.34596 17.7772 6.74121C11.1992 11.1365 6.07234 17.3836 3.04484 24.6927C0.0173314 32.0017 -0.774802 40.0444 0.768607 47.8036C2.31202 55.5628 6.12164 62.6902 11.7157 68.2843C17.3098 73.8784 24.4372 77.688 32.1964 79.2314C39.9556 80.7748 47.9983 79.9827 55.3073 76.9552C62.6164 73.9277 68.8635 68.8008 73.2588 62.2228C77.654 55.6448 80 47.9112 80 40C79.9888 29.3948 75.7709 19.2271 68.2719 11.7281C60.7729 4.22907 50.6052 0.0111993 40 0ZM40 64.6154C39.0872 64.6154 38.1948 64.3447 37.4358 63.8375C36.6768 63.3304 36.0853 62.6096 35.736 61.7662C35.3866 60.9229 35.2952 59.9949 35.4733 59.0996C35.6514 58.2043 36.091 57.3819 36.7364 56.7364C37.3819 56.0909 38.2043 55.6514 39.0996 55.4733C39.9949 55.2952 40.9229 55.3866 41.7662 55.7359C42.6096 56.0853 43.3304 56.6768 43.8376 57.4358C44.3447 58.1948 44.6154 59.0872 44.6154 60C44.6154 61.2241 44.1291 62.398 43.2636 63.2636C42.398 64.1291 41.2241 64.6154 40 64.6154ZM43.0769 45.8769V46.1538C43.0769 46.9699 42.7528 47.7525 42.1757 48.3296C41.5987 48.9066 40.8161 49.2308 40 49.2308C39.184 49.2308 38.4013 48.9066 37.8243 48.3296C37.2473 47.7525 36.9231 46.9699 36.9231 46.1538V43.0769C36.9231 42.2609 37.2473 41.4782 37.8243 40.9012C38.4013 40.3242 39.184 40 40 40C45.0885 40 49.2308 36.5385 49.2308 32.3077C49.2308 28.0769 45.0885 24.6154 40 24.6154C34.9115 24.6154 30.7692 28.0769 30.7692 32.3077V33.8461C30.7692 34.6622 30.4451 35.4448 29.868 36.0219C29.291 36.5989 28.5084 36.9231 27.6923 36.9231C26.8763 36.9231 26.0936 36.5989 25.5166 36.0219C24.9396 35.4448 24.6154 34.6622 24.6154 33.8461V32.3077C24.6154 24.6731 31.5154 18.4615 40 18.4615C48.4846 18.4615 55.3846 24.6731 55.3846 32.3077C55.3846 38.9923 50.0923 44.5885 43.0769 45.8769Z" fill="#F46A2B"/>
</svg>
