<svg width="14" height="13" viewBox="0 0 14 13" fill="none" xmlns="http://www.w3.org/2000/svg">
<path d="M6.85615 0.5C7.23651 0.5 7.5874 0.700893 7.78026 1.03036L13.566 10.8875C13.7615 11.2196 13.7615 11.6295 13.5713 11.9616C13.3812 12.2937 13.0249 12.5 12.6419 12.5H1.07044C0.687404 12.5 0.331154 12.2937 0.140976 11.9616C-0.0492029 11.6295 -0.0465244 11.217 0.146333 10.8875L5.93205 1.03036C6.1249 0.700893 6.4758 0.5 6.85615 0.5ZM6.85615 3.92857C6.4999 3.92857 6.2133 4.21518 6.2133 4.57143V7.57143C6.2133 7.92768 6.4999 8.21429 6.85615 8.21429C7.2124 8.21429 7.49901 7.92768 7.49901 7.57143V4.57143C7.49901 4.21518 7.2124 3.92857 6.85615 3.92857ZM7.7133 9.92857C7.7133 9.70124 7.62299 9.48323 7.46225 9.32248C7.3015 9.16173 7.08348 9.07143 6.85615 9.07143C6.62883 9.07143 6.41081 9.16173 6.25006 9.32248C6.08932 9.48323 5.99901 9.70124 5.99901 9.92857C5.99901 10.1559 6.08932 10.3739 6.25006 10.5347C6.41081 10.6954 6.62883 10.7857 6.85615 10.7857C7.08348 10.7857 7.3015 10.6954 7.46225 10.5347C7.62299 10.3739 7.7133 10.1559 7.7133 9.92857Z" fill="#FD2121"/>
</svg>
