<svg width="22" height="23" viewBox="0 0 22 23" fill="none" xmlns="http://www.w3.org/2000/svg">
<path d="M10.4896 21.4767C4.70754 21.4767 0 16.7698 0 10.9884C0 5.20698 4.70754 0.5 10.4896 0.5C16.2717 0.5 20.9792 5.20698 20.9792 10.9884C20.9792 16.7698 16.2717 21.4767 10.4896 21.4767ZM10.4896 2.03488C5.54671 2.03488 1.53507 6.05628 1.53507 10.9884C1.53507 15.9205 5.54671 19.9419 10.4896 19.9419C15.4325 19.9419 19.4442 15.9205 19.4442 10.9884C19.4442 6.05628 15.4325 2.03488 10.4896 2.03488Z" fill="#393B3E"/>
<path d="M21.2351 22.5007C21.0406 22.5007 20.8462 22.4291 20.6927 22.2756L18.6459 20.2291C18.3491 19.9323 18.3491 19.4412 18.6459 19.1444C18.9427 18.8477 19.4339 18.8477 19.7307 19.1444L21.7775 21.1909C22.0742 21.4877 22.0742 21.9789 21.7775 22.2756C21.624 22.4291 21.4295 22.5007 21.2351 22.5007Z" fill="#393B3E"/>
</svg>
