<svg width="18" height="24" viewBox="0 0 18 24" fill="none" xmlns="http://www.w3.org/2000/svg">
<path d="M10.2413 12.0034L4.2557 6.01756C4.09089 5.85314 4.00022 5.6333 4.00022 5.39889C4.00022 5.16436 4.09089 4.94465 4.2557 4.77997L4.78019 4.25574C4.94474 4.0908 5.16471 4 5.39912 4C5.63352 4 5.85323 4.0908 6.01791 4.25574L13.1447 11.3824C13.31 11.5476 13.4005 11.7683 13.3999 12.003C13.4005 12.2387 13.3101 12.4592 13.1447 12.6245L6.02455 19.7443C5.85987 19.9092 5.64016 20 5.40562 20C5.17122 20 4.95151 19.9092 4.78669 19.7443L4.26234 19.22C3.92113 18.8788 3.92113 18.3234 4.26234 17.9823L10.2413 12.0034Z" fill="#49495A"/>
</svg>
