<svg width="32" height="32" viewBox="0 0 32 32" fill="none" xmlns="http://www.w3.org/2000/svg">
<path d="M17.6706 7.97337L16 18L14.3293 7.97337C14.2892 7.73093 14.3024 7.48267 14.3679 7.24582C14.4334 7.00898 14.5497 6.78924 14.7087 6.60184C14.8676 6.41445 15.0655 6.2639 15.2885 6.16064C15.5114 6.05739 15.7542 6.00391 16 6.00391C16.2457 6.00391 16.4885 6.05739 16.7115 6.16064C16.9345 6.2639 17.1323 6.41445 17.2913 6.60184C17.4502 6.78924 17.5665 7.00898 17.632 7.24582C17.6975 7.48267 17.7107 7.73093 17.6706 7.97337Z" stroke="#FF3B3B" stroke-width="3" stroke-linecap="round" stroke-linejoin="round"/>
<path d="M16.0001 26.6667C16.7365 26.6667 17.3334 26.0697 17.3334 25.3333C17.3334 24.597 16.7365 24 16.0001 24C15.2637 24 14.6667 24.597 14.6667 25.3333C14.6667 26.0697 15.2637 26.6667 16.0001 26.6667Z" stroke="#FF3B3B" stroke-width="2"/>
</svg>
