<svg width="17" height="16" viewBox="0 0 17 16" fill="none" xmlns="http://www.w3.org/2000/svg">
<path d="M8.12906 15.2553C3.92404 15.2553 0.500488 11.8322 0.500488 7.62766C0.500488 3.42314 3.92404 0 8.12906 0C12.3341 0 15.7576 3.42314 15.7576 7.62766C15.7576 11.8322 12.3341 15.2553 8.12906 15.2553ZM8.12906 1.11624C4.53433 1.11624 1.61686 4.0408 1.61686 7.62766C1.61686 11.2145 4.53433 14.1391 8.12906 14.1391C11.7238 14.1391 14.6412 11.2145 14.6412 7.62766C14.6412 4.0408 11.7238 1.11624 8.12906 1.11624Z" fill="#002933"/>
<path d="M15.9438 16.0002C15.8023 16.0002 15.6609 15.9481 15.5493 15.8365L14.0608 14.3481C13.845 14.1323 13.845 13.7751 14.0608 13.5593C14.2766 13.3435 14.6339 13.3435 14.8497 13.5593L16.3382 15.0476C16.554 15.2634 16.554 15.6206 16.3382 15.8365C16.2266 15.9481 16.0852 16.0002 15.9438 16.0002Z" fill="#002933"/>
</svg>
