<svg width="5" height="5" viewBox="0 0 5 5" fill="none" xmlns="http://www.w3.org/2000/svg">
<path d="M1.78827 0.852005C2.10501 0.284002 2.26326 0 2.5 0C2.73674 0 2.89499 0.284002 3.21173 0.852005L3.29373 0.999006C3.38373 1.16051 3.42873 1.24126 3.49873 1.29451C3.56872 1.34776 3.65622 1.36751 3.83122 1.40701L3.99021 1.44301C4.6052 1.58226 4.91244 1.65176 4.98569 1.88701C5.05869 2.12201 4.84919 2.36727 4.42995 2.85752L4.32146 2.98427C4.20246 3.12352 4.14271 3.19327 4.11596 3.27927C4.08921 3.36552 4.09821 3.45852 4.11621 3.64427L4.13271 3.81352C4.19596 4.46778 4.22771 4.79478 4.03621 4.94003C3.84472 5.08528 3.55672 4.95278 2.98124 4.68778L2.83199 4.61928C2.6685 4.54378 2.58675 4.50628 2.5 4.50628C2.41325 4.50628 2.3315 4.54378 2.16801 4.61928L2.01901 4.68778C1.44327 4.95278 1.15528 5.08528 0.964036 4.94028C0.772291 4.79478 0.80404 4.46778 0.867288 3.81352L0.883788 3.64452C0.901788 3.45852 0.910787 3.36552 0.883788 3.27952C0.857289 3.19327 0.79754 3.12352 0.678543 2.98452L0.570045 2.85752C0.150805 2.36752 -0.0586899 2.12226 0.0143084 1.88701C0.0873067 1.65176 0.395049 1.58201 1.01003 1.44301L1.16903 1.40701C1.34378 1.36751 1.43103 1.34776 1.50127 1.29451C1.57152 1.24126 1.61627 1.16051 1.70627 0.999006L1.78827 0.852005Z" fill="#F4B410"/>
</svg>
