<svg width="18" height="17" viewBox="0 0 18 17" fill="none" xmlns="http://www.w3.org/2000/svg">
<path d="M8.19744 15.8542L8.19849 15.8549C8.33652 15.9492 8.49969 15.9997 8.6668 16C8.83383 15.9997 8.99694 15.9493 9.13496 15.8552L9.13578 15.8546C12.3738 13.6565 13.7553 12.1642 14.5047 11.2511C16.1088 9.29555 16.8544 7.3211 16.8333 5.1984C16.8097 2.87288 14.9454 1 12.7049 1C11.073 1 9.92714 1.91582 9.23465 2.72204L9.23287 2.72411C9.16246 2.80517 9.07547 2.87018 8.97778 2.91472C8.88009 2.95927 8.77398 2.98232 8.66661 2.98232C8.55924 2.98232 8.45313 2.95927 8.35544 2.91472L8.56289 2.45979L8.35543 2.91472C8.25775 2.87018 8.17076 2.80518 8.10036 2.72411L8.09872 2.72222C7.406 1.91651 6.26012 1 4.62828 1C2.38781 1 0.52355 2.87286 0.499919 5.1979L8.19744 15.8542ZM8.19744 15.8542C4.95947 13.6562 3.57795 12.1638 2.82856 11.2508M8.19744 15.8542L8.66661 16.5M9.41661 16.2683C12.6912 14.0454 14.1091 12.5213 14.8912 11.5683C16.557 9.5375 17.3558 7.45208 17.3333 5.19333C17.307 2.605 15.2308 0.5 12.7049 0.5C10.8683 0.5 9.59619 1.53375 8.85536 2.39625L8.85537 2.39626L9.41661 16.2683ZM9.41661 16.2683C9.19552 16.4191 8.93419 16.4998 8.66661 16.5M9.41661 16.2683L8.66661 16.5M8.66661 16.5C8.39898 16.4997 8.13765 16.4188 7.91661 16.2679C4.64203 14.045 3.22411 12.5208 2.44203 11.5679L2.82856 11.2508M2.82856 11.2508C1.2237 9.29483 0.478794 7.32039 0.499918 5.19799L2.82856 11.2508Z" stroke="#002933"/>
</svg>
