<svg width="27" height="22" viewBox="0 0 27 22" fill="none" xmlns="http://www.w3.org/2000/svg">
<path d="M0.929688 1.57143C0.929688 1.15466 1.09525 0.754961 1.38995 0.460261C1.68465 0.165561 2.08435 0 2.50112 0H24.5011C24.9179 0 25.3176 0.165561 25.6123 0.460261C25.907 0.754961 26.0725 1.15466 26.0725 1.57143V4.71429C26.0725 5.13105 25.907 5.53075 25.6123 5.82545C25.3176 6.12015 24.9179 6.28571 24.5011 6.28571V18.0714C24.5011 19.1134 24.0872 20.1126 23.3505 20.8493C22.6137 21.5861 21.6145 22 20.5725 22H6.42969C5.38777 22 4.38852 21.5861 3.65177 20.8493C2.91502 20.1126 2.50112 19.1134 2.50112 18.0714V6.28571C2.08435 6.28571 1.68465 6.12015 1.38995 5.82545C1.09525 5.53075 0.929688 5.13105 0.929688 4.71429V1.57143ZM4.07254 6.28571V18.0714C4.07254 18.6966 4.32089 19.2961 4.76294 19.7382C5.20499 20.1802 5.80453 20.4286 6.42969 20.4286H20.5725C21.1977 20.4286 21.7972 20.1802 22.2393 19.7382C22.6813 19.2961 22.9297 18.6966 22.9297 18.0714V6.28571H4.07254ZM24.5011 1.57143H2.50112V4.71429H24.5011V1.57143ZM8.78683 10.2143C8.78683 10.0059 8.86961 9.80605 9.01696 9.6587C9.16431 9.51135 9.36416 9.42857 9.57255 9.42857H17.4297C17.6381 9.42857 17.8379 9.51135 17.9853 9.6587C18.1326 9.80605 18.2154 10.0059 18.2154 10.2143C18.2154 10.4227 18.1326 10.6225 17.9853 10.7699C17.8379 10.9172 17.6381 11 17.4297 11H9.57255C9.36416 11 9.16431 10.9172 9.01696 10.7699C8.86961 10.6225 8.78683 10.4227 8.78683 10.2143Z" fill="white"/>
</svg>
