<svg width="15" height="15" viewBox="0 0 15 15" fill="none" xmlns="http://www.w3.org/2000/svg">
<g clip-path="url(#clip0_2098_33490)">
<path d="M10.6897 7.2503C10.688 6.70872 10.6299 6.16878 10.5165 5.63919H11.9665C11.8922 5.41815 11.802 5.20277 11.6966 4.99475H10.3473C10.0938 4.14727 9.70039 3.34815 9.18331 2.63044C8.85302 2.49157 8.50865 2.38893 8.15622 2.32433C8.86475 3.08504 9.39937 3.99074 9.72303 4.97864H7.55206V2.25586H6.94789V4.98267H4.77692C5.10123 3.99298 5.63727 3.08583 6.34775 2.32433C5.99685 2.38791 5.65385 2.48919 5.3247 2.62641C4.80557 3.34111 4.40943 4.13748 4.15261 4.98267H2.79525C2.68795 5.19448 2.59641 5.41392 2.52136 5.63919H3.98345C3.87004 6.16878 3.81199 6.70872 3.81025 7.2503C3.81147 7.84269 3.87902 8.43309 4.01164 9.01044H2.58581C2.66867 9.2364 2.7683 9.45585 2.88386 9.66697H4.18483C4.4313 10.4387 4.79687 11.1671 5.26831 11.8259C5.60585 11.9706 5.95843 12.0773 6.31956 12.1441C5.6621 11.4271 5.15654 10.5845 4.83331 9.66697H6.95192V12.2206H7.55608V9.66697H9.66664C9.34221 10.5848 8.83526 11.4274 8.17636 12.1441C8.53918 12.075 8.89314 11.9656 9.23164 11.8178C9.70234 11.1615 10.0679 10.4358 10.3151 9.66697H11.604C11.719 9.45975 11.8186 9.24436 11.9021 9.02253H10.4722C10.6111 8.44185 10.6841 7.84735 10.6897 7.2503ZM6.94789 9.01044H4.63595C4.35254 7.90191 4.3401 6.74146 4.5997 5.62711H6.94789V9.01044ZM9.864 9.01044H7.55206V5.63919H9.90025C10.016 6.16833 10.0727 6.70867 10.0694 7.2503C10.0732 7.84321 10.0042 8.43434 9.864 9.01044Z" fill="#002933"/>
<path d="M7.24999 0.805664C5.9754 0.805664 4.72943 1.18362 3.66965 1.89175C2.60986 2.59987 1.78386 3.60636 1.2961 4.78393C0.808334 5.96149 0.680713 7.25726 0.929373 8.50736C1.17803 9.75746 1.79181 10.9057 2.69308 11.807C3.59435 12.7083 4.74264 13.3221 5.99274 13.5707C7.24284 13.8194 8.5386 13.6918 9.71617 13.204C10.8937 12.7162 11.9002 11.8902 12.6083 10.8305C13.3165 9.77067 13.6944 8.5247 13.6944 7.25011C13.6944 5.54094 13.0155 3.90177 11.8069 2.6932C10.5983 1.48463 8.95916 0.805664 7.24999 0.805664ZM7.24999 12.889C6.13472 12.889 5.0445 12.5583 4.11719 11.9387C3.18988 11.3191 2.46713 10.4384 2.04034 9.40802C1.61354 8.37765 1.50187 7.24385 1.71945 6.15002C1.93703 5.05618 2.47408 4.05142 3.26269 3.26281C4.05131 2.4742 5.05606 1.93715 6.1499 1.71957C7.24373 1.50199 8.37753 1.61366 9.4079 2.04045C10.4383 2.46725 11.3189 3.19 11.9386 4.11731C12.5582 5.04462 12.8889 6.13484 12.8889 7.25011C12.8889 8.74563 12.2948 10.1799 11.2373 11.2374C10.1798 12.2949 8.74552 12.889 7.24999 12.889Z" fill="#002933"/>
</g>
<defs>
<clipPath id="clip0_2098_33490">
<rect width="14.5" height="14.5" fill="white"/>
</clipPath>
</defs>
</svg>
