<svg width="82" height="82" viewBox="0 0 82 82" fill="none" xmlns="http://www.w3.org/2000/svg">
<circle cx="41" cy="41" r="41" fill="#1875F7"/>
<path d="M53.426 26.8593C51.9728 24.5953 49.9057 22.7156 47.4822 21.5437C44.9557 20.3203 42.0963 19.8 39.3072 20.1422C36.4994 20.489 33.8885 21.5859 31.69 23.3672C29.5853 25.0687 28.001 27.3703 27.101 29.9156C26.0369 32.925 26.0088 36.3234 27.0166 39.3515C27.6119 41.1468 28.6525 42.7875 29.7025 44.3437C31.0197 46.2984 32.4541 48.164 33.926 50.0015C35.2338 51.6375 36.5838 53.2406 37.9572 54.825C38.7072 55.6922 39.4666 56.55 40.24 57.3984C40.2775 57.4359 40.3103 57.4781 40.3478 57.5156C40.6807 57.8765 41.3416 57.8765 41.6744 57.5156C42.1338 57.014 42.5838 56.5078 43.0338 56.0015C44.1353 54.7547 45.2181 53.4937 46.2822 52.2187C47.651 50.5734 48.9916 48.9047 50.276 47.1937C51.4572 45.6234 52.6057 44.0156 53.5994 42.3187C54.026 41.5875 54.4103 40.8422 54.7385 40.0593C55.2775 38.7703 55.5588 37.3781 55.6806 35.9906C55.7181 35.5828 55.7369 35.1703 55.7369 34.7578V34.7484C55.7228 31.9734 54.926 29.2031 53.426 26.8593ZM45.865 35.1843C45.8603 35.2453 45.8556 35.3109 45.8463 35.3718C45.8463 35.3672 45.8416 35.3672 45.8416 35.3718H45.8322C45.8322 35.3812 45.8416 35.4093 45.8369 35.4328C45.8369 35.4328 45.8416 35.4328 45.8416 35.4375V35.4515C45.8416 35.4562 45.8416 35.4562 45.8369 35.4562C45.79 35.7468 45.7197 36.0281 45.6307 36.3093C45.6119 36.3703 45.5463 36.6703 45.49 36.689C45.49 36.689 45.49 36.6843 45.4947 36.675C45.4947 36.6797 45.49 36.6843 45.4853 36.6937C45.4525 36.7687 45.415 36.8437 45.3775 36.9187C45.251 37.1672 45.1103 37.4015 44.951 37.6312C44.9275 37.6593 44.8619 37.7906 44.8244 37.8047C44.8197 37.8047 44.89 37.725 44.8994 37.7156C44.8994 37.7156 44.89 37.725 44.8807 37.739C44.8619 37.7625 44.8431 37.7859 44.8244 37.8093C44.726 37.9265 44.6228 38.039 44.5197 38.1515C44.426 38.2453 44.3322 38.339 44.2338 38.4281C44.1869 38.4703 44.14 38.5078 44.0932 38.55C44.0603 38.5781 44.0322 38.6015 43.9994 38.6297C43.901 38.714 44.0228 38.6297 44.0416 38.6015C44.0088 38.6812 43.7885 38.7797 43.7182 38.8265C43.5963 38.9062 43.4744 38.9812 43.3525 39.0515C43.2353 39.1172 43.1182 39.1781 42.9963 39.2343C42.9588 39.2484 42.926 39.2672 42.8885 39.2812C42.926 39.2718 42.9822 39.2672 42.8791 39.2859C42.8744 39.2906 42.865 39.2906 42.8556 39.2906C42.8556 39.2906 42.8557 39.2906 42.851 39.2906C42.8088 39.3047 42.7713 39.3234 42.7291 39.3375C42.4619 39.4359 42.19 39.5109 41.9135 39.5672C41.8525 39.5812 41.7869 39.5906 41.726 39.6C41.726 39.6 41.7119 39.6047 41.6932 39.6047C41.74 39.6 41.7166 39.6047 41.6838 39.6047H41.6932H41.6885C41.5385 39.6187 41.3885 39.6328 41.2338 39.6422C40.9432 39.6515 40.6525 39.6375 40.3619 39.6093C40.3807 39.6093 40.3947 39.614 40.4088 39.6187C40.4088 39.6187 40.3103 39.6047 40.2916 39.6047H40.3385C40.3291 39.6047 40.3244 39.6 40.315 39.6C40.24 39.5859 40.1697 39.5765 40.0947 39.5578C39.9494 39.5297 39.8088 39.4922 39.6635 39.4547C39.5322 39.4172 39.4057 39.375 39.2744 39.3281C39.2463 39.3187 39.0775 39.2765 39.0728 39.2484C39.0728 39.2437 39.251 39.3281 39.1525 39.2812C39.115 39.2625 39.0775 39.2484 39.04 39.2297C38.7869 39.1125 38.5432 38.9812 38.3135 38.8265C38.2385 38.7797 37.9947 38.6578 37.9619 38.5781C37.9666 38.5781 38.0416 38.6437 38.051 38.6484C38.051 38.6437 38.0416 38.639 38.0275 38.6297C38.0041 38.6109 37.9807 38.5922 37.9572 38.5734C37.8963 38.5218 37.8307 38.4656 37.7697 38.414C37.5635 38.2312 37.376 38.0297 37.1978 37.8187C37.1791 37.7953 37.1603 37.7718 37.1369 37.7484C37.1135 37.7203 37.0994 37.7062 37.0947 37.7015C37.09 37.6968 37.09 37.6922 37.09 37.6968C37.076 37.6734 37.0666 37.6547 37.0572 37.6406C36.9728 37.5234 36.8932 37.4062 36.8228 37.2797C36.7478 37.1578 36.6775 37.0312 36.6119 36.9047C36.5838 36.8484 36.5557 36.7922 36.5322 36.7359C36.5182 36.7078 36.5088 36.6797 36.4947 36.6515C36.4338 36.5156 36.4525 36.6047 36.4807 36.6515C36.4338 36.5765 36.3775 36.3375 36.3635 36.2906C36.3166 36.15 36.2791 36.0093 36.2463 35.8687C36.2135 35.7375 36.1853 35.6015 36.1619 35.4656C36.1572 35.4375 36.1525 35.4047 36.1478 35.3718C36.1478 35.3906 36.1525 35.4093 36.1525 35.4281V35.4609C36.1525 35.4515 36.1385 35.339 36.1385 35.339C36.1432 35.3484 36.1432 35.3578 36.1432 35.3672C36.1385 35.3109 36.1338 35.2547 36.1291 35.2031C36.1057 34.8984 36.1103 34.5937 36.1338 34.289C36.1385 34.2234 36.1572 34.1578 36.1572 34.0968C36.1432 34.1297 36.1385 34.139 36.1385 34.1343C36.1385 34.139 36.1385 34.1343 36.1385 34.1297V34.125C36.1385 34.1203 36.1385 34.1109 36.1432 34.1015C36.1432 34.0968 36.1432 34.0922 36.1432 34.0875C36.1478 34.0593 36.1525 34.0359 36.1478 34.0593C36.1525 34.05 36.1525 34.0453 36.1525 34.0593C36.176 33.914 36.2041 33.7687 36.2369 33.6281C36.2697 33.4968 36.3025 33.3656 36.3447 33.2343C36.3635 33.1828 36.4338 32.8593 36.49 32.8265C36.4619 32.85 36.415 32.9953 36.4713 32.8781C36.4853 32.85 36.4947 32.8218 36.5088 32.7937C36.5416 32.7281 36.5697 32.6625 36.6025 32.5968C36.6682 32.4703 36.7385 32.3437 36.8135 32.2218C36.8838 32.1093 36.9541 31.9969 37.0291 31.889C37.0572 31.8515 37.0853 31.8094 37.1182 31.7718C37.1416 31.7437 37.1603 31.7203 37.1838 31.6922C37.3619 31.4812 37.5541 31.2843 37.7557 31.0968C37.8072 31.05 37.8635 31.0031 37.9197 30.9562C37.9385 30.9422 38.0135 30.8718 38.0275 30.8625C38.0228 30.8672 38.0135 30.8765 37.9947 30.8953C37.8869 30.9937 38.065 30.8437 38.0978 30.8203C38.1635 30.7734 38.2338 30.7265 38.2994 30.6797C38.5338 30.5297 38.7775 30.3937 39.026 30.2765C39.0541 30.2625 39.0822 30.2531 39.1103 30.239C39.1338 30.2297 39.1478 30.2203 39.1525 30.2203C39.1853 30.2109 39.2228 30.2015 39.2322 30.1968C39.3682 30.1453 39.5088 30.1031 39.6494 30.0609C39.7807 30.0234 39.9119 29.9906 40.0478 29.9625C40.1182 29.9484 40.1932 29.9344 40.2682 29.9203C40.2916 29.9156 40.315 29.9156 40.3338 29.9109C40.1182 29.9343 40.4885 29.8828 40.3619 29.9062C40.3525 29.9062 40.3432 29.9109 40.3338 29.9109C40.6291 29.8828 40.9197 29.8687 41.215 29.8781C41.3557 29.8828 41.4963 29.8968 41.6369 29.9109H41.6416C41.4728 29.8828 41.7869 29.925 41.6463 29.9109C41.6557 29.9109 41.665 29.9156 41.6744 29.9156C41.7494 29.9297 41.8197 29.939 41.8947 29.9531C42.1807 30.0093 42.4666 30.089 42.7431 30.1922C42.7525 30.1968 42.7806 30.2015 42.8088 30.2109C42.8135 30.2109 42.8181 30.2156 42.8369 30.225C42.8744 30.2437 42.9119 30.2578 42.9494 30.2765C43.0807 30.3375 43.2072 30.4031 43.3338 30.4734C43.451 30.539 43.5635 30.6047 43.676 30.6797C43.7556 30.7312 43.9947 30.839 44.0275 30.9281C44.0275 30.9187 43.8494 30.7828 43.9806 30.8953C44.0041 30.914 44.0275 30.9328 44.051 30.9515C44.0978 30.989 44.1447 31.0312 44.1916 31.0734C44.3041 31.1765 44.4166 31.2797 44.5197 31.3922C44.6135 31.4859 44.6978 31.5843 44.7869 31.6875C44.801 31.7062 44.8713 31.7812 44.8807 31.7953C44.876 31.7906 44.8666 31.7812 44.8478 31.7625C44.7541 31.664 44.9088 31.8468 44.9369 31.889C45.0963 32.114 45.2369 32.3531 45.3635 32.6015C45.3963 32.6672 45.4291 32.7328 45.4572 32.7984C45.476 32.8406 45.5228 33.0093 45.4947 32.8828C45.4713 32.7515 45.5228 32.9531 45.5369 33C45.565 33.0797 45.5932 33.1593 45.6166 33.239C45.701 33.5015 45.7619 33.7734 45.8088 34.0453V34.0593C45.8088 34.064 45.8135 34.0687 45.8135 34.0687C45.8135 34.0828 45.8181 34.1015 45.8228 34.1156C45.8228 34.1015 45.8228 34.0875 45.8182 34.0734C45.8182 34.0547 45.8182 34.0453 45.8182 34.0406C45.8228 34.05 45.8322 34.1578 45.8322 34.1625C45.8275 34.1484 45.8275 34.1343 45.8228 34.1156C45.8275 34.1765 45.8369 34.2375 45.8416 34.2984C45.8557 34.4531 45.8603 34.6031 45.8603 34.7578C45.8791 34.9031 45.8744 35.0437 45.865 35.1843Z" fill="#FCFCFC"/>
<path d="M35.6223 62.4787H46.3848C47.1208 62.4787 47.8239 61.8319 47.7911 61.0725C47.7583 60.3084 47.1723 59.6662 46.3848 59.6662C45.1661 59.6662 43.9473 59.6662 42.7286 59.6662C40.8067 59.6662 38.8801 59.6662 36.9583 59.6662C36.513 59.6662 36.0676 59.6662 35.6223 59.6662C34.8864 59.6662 34.1833 60.3131 34.2161 61.0725C34.2489 61.8319 34.8348 62.4787 35.6223 62.4787Z" fill="#FCFCFC"/>
</svg>
