<svg width="40" height="61" viewBox="0 0 40 61" fill="none" xmlns="http://www.w3.org/2000/svg">
<g clip-path="url(#clip0_1977_15894)">
<path d="M39.9389 39.7919C39.6739 36.3213 38.5998 33.0777 37.1201 29.9427C34.9397 25.3257 32.0313 21.1275 29.2685 16.8425C25.8871 11.5981 22.0092 6.61976 20.0155 0.5C18.5445 4.8948 16.2558 8.74513 13.8153 12.521C11.6756 15.8309 9.52296 19.1323 7.3575 22.4252C4.8386 26.2584 2.53251 30.2027 1.14612 34.5963C-0.568825 40.0361 -0.512821 45.4087 2.3869 50.4298C6.45398 57.4712 12.7898 60.6953 21.0161 60.4939C30.7283 60.2546 40.8873 52.206 39.9389 39.7919ZM20.0005 55.3959C16.8991 55.3959 13.8674 54.4938 11.2887 52.8036C8.70998 51.1134 6.70012 48.7111 5.51327 45.9005C4.32642 43.0898 4.01589 39.9971 4.62094 37.0133C5.22599 34.0295 6.71945 31.2887 8.91247 29.1376C11.1055 26.9864 13.8995 25.5214 16.9413 24.9279C19.9831 24.3344 23.1361 24.639 26.0014 25.8032C28.8667 26.9674 31.3157 28.9389 33.0387 31.4685C34.7618 33.998 35.6814 36.9719 35.6814 40.0141C35.6814 44.0936 34.0294 48.0061 31.0886 50.8907C28.1479 53.7753 24.1594 55.3959 20.0005 55.3959Z" fill="#1875F7"/>
<path d="M22.1524 42.1761H21.8674L21.209 38.4662C21.1709 38.2555 21.065 38.0624 20.9069 37.915C20.7488 37.7676 20.5468 37.6737 20.3304 37.647C17.6669 37.3378 14.9755 37.3378 12.312 37.647C12.0949 37.6717 11.8919 37.7649 11.7337 37.9127C11.5754 38.0605 11.4704 38.2547 11.4346 38.4662C11.2687 39.4037 11.1027 40.3397 10.9368 41.274L10.775 42.1773H10.5634C10.4298 42.1772 10.2974 42.2029 10.1739 42.2529C10.0504 42.303 9.9382 42.3764 9.84366 42.469C9.74911 42.5617 9.6741 42.6717 9.62293 42.7928C9.57175 42.9138 9.54541 43.0436 9.54541 43.1747V46.6637C9.54521 46.91 9.6379 47.1476 9.80564 47.3308C9.97337 47.5141 10.2043 47.63 10.4539 47.6562V49.3311H13.2192V47.6489H19.5513V49.3311H22.2656V47.6562C22.5148 47.6291 22.745 47.5127 22.9119 47.3293C23.0789 47.1459 23.171 46.9084 23.1704 46.6625V43.1747C23.1705 43.0435 23.1443 42.9136 23.0932 42.7924C23.0421 42.6712 22.9671 42.561 22.8726 42.4683C22.778 42.3755 22.6657 42.3019 22.5421 42.2518C22.4185 42.2017 22.2861 42.176 22.1524 42.1761ZM12.022 45.5186C11.8689 45.5186 11.7193 45.4741 11.5921 45.3907C11.4648 45.3074 11.3656 45.1888 11.307 45.0502C11.2483 44.9115 11.2329 44.7589 11.2627 44.6116C11.2925 44.4643 11.3661 44.329 11.4742 44.2228C11.5823 44.1166 11.7201 44.0441 11.8702 44.0147C12.0203 43.9853 12.1759 44.0001 12.3174 44.0574C12.4588 44.1147 12.5798 44.2118 12.665 44.3366C12.7502 44.4613 12.7958 44.6079 12.7961 44.7581C12.7958 44.9591 12.7145 45.1518 12.57 45.2942C12.4254 45.4367 12.2294 45.5173 12.0245 45.5186H12.022ZM18.44 45.2342C18.4401 45.2693 18.4325 45.3041 18.4177 45.3362C18.4029 45.3682 18.3812 45.3967 18.3541 45.4197C18.3065 45.4592 18.2459 45.4804 18.1836 45.4796H14.567C14.501 45.4796 14.4377 45.4538 14.391 45.408C14.3444 45.3623 14.3181 45.3002 14.3181 45.2354V44.2405C14.3181 44.1757 14.3444 44.1136 14.391 44.0678C14.4377 44.022 14.501 43.9963 14.567 43.9963H18.1948C18.2608 43.9963 18.3241 44.022 18.3708 44.0678C18.4175 44.1136 18.4437 44.1757 18.4437 44.2405V45.233L18.44 45.2342ZM12.7152 41.7818L12.7662 41.4962L13.1284 39.4733C13.1435 39.3813 13.1891 39.2967 13.2582 39.2327C13.3273 39.1687 13.4159 39.1289 13.5104 39.1193C15.4167 38.8996 17.3426 38.8996 19.2489 39.1193C19.3437 39.1291 19.4325 39.1691 19.5018 39.2333C19.5711 39.2975 19.6169 39.3823 19.6322 39.4745L20.0454 41.7818H12.7152ZM20.7299 45.5186C20.5768 45.5186 20.4272 45.4741 20.2999 45.3907C20.1727 45.3074 20.0735 45.1888 20.0148 45.0502C19.9562 44.9115 19.9408 44.7589 19.9706 44.6116C20.0003 44.4643 20.0739 44.329 20.1821 44.2228C20.2902 44.1166 20.428 44.0441 20.5781 44.0147C20.7282 43.9853 20.8838 44.0001 21.0252 44.0574C21.1667 44.1147 21.2877 44.2118 21.3729 44.3366C21.4581 44.4613 21.5037 44.6079 21.504 44.7581C21.5036 44.9599 21.4217 45.1533 21.2761 45.2959C21.1305 45.4385 20.9331 45.5186 20.7274 45.5186H20.7299Z" fill="#1875F7"/>
<path d="M30.4536 36.1125H30.2532V33.6038L29.1033 32.416L28.9863 33.3523L29.3983 33.7821V36.1125H29.1979V38.6762H29.4468V42.5106C29.443 42.7065 29.3706 42.8951 29.242 43.0449C29.1133 43.1946 28.936 43.2965 28.7399 43.3334C28.622 43.3504 28.5017 43.3423 28.3873 43.3097C28.2729 43.2771 28.1669 43.2207 28.0766 43.1444C27.9863 43.0681 27.9138 42.9737 27.864 42.8675C27.8142 42.7613 27.7882 42.6458 27.7879 42.5289V38.6224H26.5819V38.277H27.198L28.3641 31.5724H17.146L17.9686 36.2981C18.571 36.3249 19.1729 36.3656 19.7744 36.4202L19.2306 33.295H26.3094L25.7444 36.5483H21.0924C21.458 36.6843 21.7813 36.9112 22.0305 37.2068C22.2796 37.5023 22.4461 37.8564 22.5136 38.2342L23.0238 41.1177C23.4366 41.2826 23.7899 41.5646 24.0384 41.9276C24.2869 42.2905 24.4194 42.718 24.419 43.1552V46.6454C24.419 46.7171 24.4153 46.7889 24.4077 46.8602H27.8401V44.6409H26.5844V39.3207H27.0822V42.4947C27.0748 42.6955 27.1085 42.8957 27.1812 43.0835C27.254 43.2714 27.3644 43.443 27.5059 43.5882C27.6473 43.7335 27.8171 43.8495 28.005 43.9293C28.193 44.0092 28.3953 44.0513 28.6001 44.0532C28.8049 44.0551 29.0081 44.0167 29.1975 43.9403C29.3869 43.8639 29.5588 43.751 29.7031 43.6084C29.8473 43.4657 29.9609 43.2961 30.0373 43.1097C30.1136 42.9233 30.1511 42.7237 30.1475 42.5228V38.6762H30.4486V36.1125H30.4536Z" fill="#1875F7"/>
</g>
<defs>
<clipPath id="clip0_1977_15894">
<rect width="40" height="60" fill="white" transform="translate(0 0.5)"/>
</clipPath>
</defs>
</svg>
