<svg width="10" height="16" viewBox="0 0 10 16" fill="none" xmlns="http://www.w3.org/2000/svg">
<path d="M3.15864 8.00338L9.1442 2.01756C9.30901 1.85314 9.39968 1.6333 9.39968 1.39889C9.39968 1.16436 9.30901 0.94465 9.1442 0.779967L8.61971 0.25574C8.45516 0.0907967 8.23519 0 8.00078 0C7.76638 0 7.54667 0.0907967 7.38199 0.25574L0.255223 7.38237C0.0898897 7.54758 -0.000646922 7.76832 3.48505e-06 8.00299C-0.000646922 8.2387 0.0897596 8.45919 0.255223 8.62452L7.37535 15.7443C7.54004 15.9092 7.75974 16 7.99428 16C8.22869 16 8.44839 15.9092 8.61321 15.7443L9.13756 15.22C9.47877 14.8788 9.47877 14.3234 9.13756 13.9823L3.15864 8.00338Z" fill="#49495A"/>
</svg>
