<svg width="20" height="20" viewBox="0 0 20 20" fill="none" xmlns="http://www.w3.org/2000/svg">
<path d="M9.1657 17.5013C9.16567 17.6107 9.18721 17.7191 9.22907 17.8202C9.27094 17.9213 9.33232 18.0132 9.40971 18.0906C9.4871 18.168 9.57897 18.2294 9.68009 18.2712C9.78121 18.3131 9.88958 18.3346 9.99902 18.3346H13.3323C14.437 18.3333 15.4961 17.8939 16.2772 17.1128C17.0583 16.3317 17.4977 15.2726 17.499 14.168V5.83461C17.4977 4.72994 17.0583 3.67089 16.2772 2.88977C15.4961 2.10866 14.437 1.66926 13.3323 1.66797H9.99902C9.77801 1.66797 9.56606 1.75576 9.40978 1.91204C9.2535 2.06832 9.1657 2.28028 9.1657 2.50129C9.1657 2.7223 9.2535 2.93426 9.40978 3.09054C9.56606 3.24681 9.77801 3.33461 9.99902 3.33461H13.3323C13.9952 3.33533 14.6306 3.59896 15.0993 4.06764C15.568 4.53633 15.8316 5.17179 15.8323 5.83461V14.168C15.8316 14.8308 15.568 15.4663 15.0993 15.9349C14.6306 16.4036 13.9952 16.6672 13.3323 16.668H9.99902C9.88958 16.6679 9.78121 16.6895 9.68009 16.7313C9.57897 16.7732 9.4871 16.8346 9.40971 16.912C9.33232 16.9894 9.27094 17.0812 9.22907 17.1824C9.18721 17.2835 9.16567 17.3918 9.1657 17.5013ZM2.56332 10.3197C2.50055 10.1673 2.48419 9.99985 2.51632 9.83824C2.54844 9.67663 2.6276 9.52812 2.74387 9.41137L6.07648 6.07875C6.15386 6.00138 6.24572 5.94 6.34681 5.89812C6.44791 5.85625 6.55626 5.8347 6.66568 5.8347C6.77511 5.8347 6.88346 5.85625 6.98456 5.89812C7.08565 5.94 7.17751 6.00138 7.25488 6.07875C7.33226 6.15612 7.39363 6.24798 7.43551 6.34908C7.47738 6.45017 7.49894 6.55853 7.49894 6.66795C7.49894 6.77737 7.47738 6.88573 7.43551 6.98682C7.39363 7.08792 7.33226 7.17977 7.25488 7.25715L5.34406 9.16797H11.6657C11.8867 9.16797 12.0987 9.25576 12.2549 9.41204C12.4112 9.56832 12.499 9.78028 12.499 10.0013C12.499 10.2223 12.4112 10.4343 12.2549 10.5905C12.0987 10.7468 11.8867 10.8346 11.6657 10.8346H5.34406L7.25488 12.7454C7.33226 12.8228 7.39363 12.9147 7.43551 13.0158C7.47738 13.1169 7.49894 13.2252 7.49894 13.3346C7.49894 13.4441 7.47738 13.5524 7.43551 13.6535C7.39363 13.7546 7.33226 13.8465 7.25488 13.9238C7.17751 14.0012 7.08565 14.0626 6.98456 14.1045C6.88346 14.1463 6.77511 14.1679 6.66568 14.1679C6.55626 14.1679 6.44791 14.1463 6.34681 14.1045C6.24572 14.0626 6.15386 14.0012 6.07648 13.9238L2.74387 10.5911C2.66637 10.5134 2.60501 10.4212 2.56332 10.3197Z" fill="#FF3B3B"/>
</svg>
