<svg width="19" height="19" viewBox="0 0 19 19" fill="none" xmlns="http://www.w3.org/2000/svg">
<g clip-path="url(#clip0_2408_15598)">
<path d="M16.0832 9.57084V6.58072C16.0832 2.95209 13.1311 0 9.50244 0C5.87381 0 2.92172 2.95209 2.92172 6.58072V9.57084C1.67021 9.89996 0.744629 11.0412 0.744629 12.3945V14.6211C0.744629 15.031 1.07691 15.3633 1.48682 15.3633H5.17601C5.53486 17.4263 7.33837 19 9.50244 19C11.6665 19 13.47 17.4263 13.8289 15.3633H17.5181C17.928 15.3633 18.2603 15.031 18.2603 14.6211V12.3945C18.2603 11.0412 17.3347 9.89996 16.0832 9.57084ZM9.50244 17.5156C8.16049 17.5156 7.02795 16.6015 6.69482 15.3633H12.3101C11.9769 16.6015 10.8444 17.5156 9.50244 17.5156ZM16.7759 13.8789C13.185 13.8789 4.35767 13.8789 2.229 13.8789V12.3945C2.229 11.6033 2.8727 10.9596 3.66391 10.9596C4.07382 10.9596 4.4061 10.6273 4.4061 10.2174V6.58072C4.4061 3.77057 6.6923 1.48438 9.50244 1.48438C12.3126 1.48438 14.5988 3.77057 14.5988 6.58072V10.2174C14.5988 10.6273 14.9311 10.9596 15.341 10.9596C16.1322 10.9596 16.7759 11.6033 16.7759 12.3945V13.8789Z" fill="#002933"/>
</g>
<defs>
<clipPath id="clip0_2408_15598">
<rect width="19" height="19" fill="white"/>
</clipPath>
</defs>
</svg>
