<svg width="14" height="14" viewBox="0 0 14 14" fill="none" xmlns="http://www.w3.org/2000/svg">
<path fill-rule="evenodd" clip-rule="evenodd" d="M1.83284 4.56719C2.90504 3.49501 4.59423 2.40625 7 2.40625C9.40577 2.40625 11.095 3.49501 12.1672 4.56719C12.7014 5.10143 13.0863 5.63448 13.3385 6.03509C13.465 6.23595 13.559 6.40496 13.6226 6.52632C13.6544 6.58704 13.6787 6.63596 13.6955 6.67109C13.704 6.68868 13.7107 6.70281 13.7155 6.71331L13.7214 6.72621L13.7234 6.73059L13.7241 6.73221L13.7244 6.73286C13.7246 6.73317 13.7247 6.73348 13.125 7C13.7247 7.26653 13.7246 7.26683 13.7244 7.26714L13.7241 7.26779L13.7234 7.26941L13.7214 7.27379L13.7155 7.28669C13.7107 7.29719 13.704 7.31133 13.6955 7.32891C13.6787 7.36404 13.6544 7.41296 13.6226 7.47368C13.559 7.59504 13.465 7.76405 13.3385 7.96491C13.0863 8.36553 12.7014 8.89858 12.1672 9.43281C11.095 10.505 9.40577 11.5938 7 11.5938C4.59423 11.5938 2.90504 10.505 1.83284 9.43281C1.29863 8.89858 0.913701 8.36553 0.661456 7.96491C0.535014 7.76405 0.440974 7.59504 0.377413 7.47368C0.345609 7.41296 0.321362 7.36404 0.304439 7.32891C0.295975 7.31133 0.289336 7.29719 0.284493 7.28669L0.278568 7.27379L0.276608 7.26941L0.275877 7.26779L0.275573 7.26714C0.275439 7.26683 0.275311 7.26653 0.875 7C0.275311 6.73348 0.275439 6.73317 0.275573 6.73286L0.275877 6.73221L0.276608 6.73059L0.278568 6.72621L0.284493 6.71331C0.289336 6.70281 0.295975 6.68868 0.304439 6.67109C0.321362 6.63596 0.345609 6.58704 0.377413 6.52632C0.440974 6.40496 0.535014 6.23595 0.661456 6.03509C0.913701 5.63448 1.29863 5.10143 1.83284 4.56719ZM0.875 7L0.275311 6.73348C0.199896 6.90314 0.199896 7.09686 0.275311 7.26653L0.875 7ZM1.61367 7C1.65641 7.07595 1.70912 7.16551 1.77214 7.26556C1.98474 7.60323 2.31074 8.05455 2.76091 8.50469C3.65746 9.40126 5.03077 10.2813 7 10.2813C8.96923 10.2813 10.3425 9.40126 11.2391 8.50469C11.6893 8.05455 12.0153 7.60323 12.2279 7.26556C12.2909 7.16551 12.3436 7.07595 12.3863 7C12.3436 6.92405 12.2909 6.83449 12.2279 6.73444C12.0153 6.39678 11.6893 5.94545 11.2391 5.49531C10.3425 4.59874 8.96923 3.71875 7 3.71875C5.03077 3.71875 3.65746 4.59874 2.76091 5.49531C2.31074 5.94545 1.98474 6.39678 1.77214 6.73444C1.70912 6.83449 1.65641 6.92405 1.61367 7ZM13.125 7L13.7247 7.26653C13.8001 7.09686 13.8001 6.90314 13.7247 6.73348L13.125 7Z" fill="#143A43"/>
<path fill-rule="evenodd" clip-rule="evenodd" d="M7 5.90625C6.39594 5.90625 5.90625 6.39594 5.90625 7C5.90625 7.60406 6.39594 8.09375 7 8.09375C7.60406 8.09375 8.09375 7.60406 8.09375 7C8.09375 6.39594 7.60406 5.90625 7 5.90625ZM4.59375 7C4.59375 5.67105 5.67105 4.59375 7 4.59375C8.32895 4.59375 9.40625 5.67105 9.40625 7C9.40625 8.32895 8.32895 9.40625 7 9.40625C5.67105 9.40625 4.59375 8.32895 4.59375 7Z" fill="#143A43"/>
</svg>
