<svg width="22" height="22" viewBox="0 0 22 22" fill="none" xmlns="http://www.w3.org/2000/svg">
<path fill-rule="evenodd" clip-rule="evenodd" d="M19.2791 18.4419C19.2791 19.12 19.0093 19.7712 18.5302 20.2512C18.0502 20.7302 17.3991 21 16.7209 21H5.55814C4.88 21 4.22884 20.7302 3.74884 20.2512C3.26977 19.7712 3 19.12 3 18.4419V3.55814C3 2.88 3.26977 2.22884 3.74884 1.74884C4.22884 1.26977 4.88 1 5.55814 1H13.5451C13.9767 1 14.3907 1.17116 14.6958 1.47721L18.8019 5.58326C19.1079 5.88837 19.2791 6.30233 19.2791 6.73395V18.4419ZM17.8837 18.4419V6.73395C17.8837 6.67256 17.8595 6.61302 17.8158 6.5693L13.7098 2.46326C13.666 2.41953 13.6065 2.39535 13.5451 2.39535H5.55814C5.2493 2.39535 4.95442 2.51814 4.73581 2.73581C4.51814 2.95442 4.39535 3.2493 4.39535 3.55814V18.4419C4.39535 18.7507 4.51814 19.0456 4.73581 19.2642C4.95442 19.4819 5.2493 19.6047 5.55814 19.6047H16.7209C17.0298 19.6047 17.3247 19.4819 17.5433 19.2642C17.7609 19.0456 17.8837 18.7507 17.8837 18.4419Z" fill="#002933"/>
<path fill-rule="evenodd" clip-rule="evenodd" d="M13.2354 2.16642C13.2354 1.78131 13.5479 1.46875 13.933 1.46875C14.3181 1.46875 14.6307 1.78131 14.6307 2.16642V5.42224C14.6307 5.55061 14.7349 5.6548 14.8633 5.6548H18.1191C18.5042 5.6548 18.8167 5.96735 18.8167 6.35247C18.8167 6.73759 18.5042 7.05014 18.1191 7.05014H14.8633C13.9637 7.05014 13.2354 6.32177 13.2354 5.42224V2.16642Z" fill="#002933"/>
<path fill-rule="evenodd" clip-rule="evenodd" d="M7.41594 10.3016C7.03082 10.3016 6.71826 9.98904 6.71826 9.60392C6.71826 9.21881 7.03082 8.90625 7.41594 8.90625H14.8578C15.2429 8.90625 15.5555 9.21881 15.5555 9.60392C15.5555 9.98904 15.2429 10.3016 14.8578 10.3016H7.41594Z" fill="#002933"/>
<path fill-rule="evenodd" clip-rule="evenodd" d="M7.41594 13.5594C7.03082 13.5594 6.71826 13.2469 6.71826 12.8617C6.71826 12.4766 7.03082 12.1641 7.41594 12.1641H14.8578C15.2429 12.1641 15.5555 12.4766 15.5555 12.8617C15.5555 13.2469 15.2429 13.5594 14.8578 13.5594H7.41594Z" fill="#002933"/>
<path fill-rule="evenodd" clip-rule="evenodd" d="M7.41594 16.8172C7.03082 16.8172 6.71826 16.5047 6.71826 16.1195C6.71826 15.7344 7.03082 15.4219 7.41594 15.4219H11.602C11.9871 15.4219 12.2997 15.7344 12.2997 16.1195C12.2997 16.5047 11.9871 16.8172 11.602 16.8172H7.41594Z" fill="#002933"/>
</svg>
