<svg width="20" height="16" viewBox="0 0 20 16" fill="none" xmlns="http://www.w3.org/2000/svg">
<path fill-rule="evenodd" clip-rule="evenodd" d="M1.62791 2.18441C1.49947 2.18441 1.39535 2.28853 1.39535 2.41697V13.5798C1.39535 13.7082 1.49947 13.8123 1.62791 13.8123H18.3721C18.5006 13.8123 18.6047 13.7082 18.6047 13.5798V2.41697C18.6047 2.28853 18.5006 2.18441 18.3721 2.18441H1.62791ZM0 2.41697C0 1.5179 0.728837 0.789062 1.62791 0.789062H18.3721C19.2712 0.789062 20 1.5179 20 2.41697V13.5798C20 14.4788 19.2712 15.2077 18.3721 15.2077H1.62791C0.728837 15.2077 0 14.4788 0 13.5798V2.41697Z" fill="#002933"/>
<path fill-rule="evenodd" clip-rule="evenodd" d="M0 6.13517C0 5.74986 0.312363 5.4375 0.697674 5.4375H19.3023C19.6876 5.4375 20 5.74986 20 6.13517C20 6.52048 19.6876 6.83285 19.3023 6.83285H0.697674C0.312363 6.83285 0 6.52048 0 6.13517Z" fill="#002933"/>
<path fill-rule="evenodd" clip-rule="evenodd" d="M0.697674 4.04688C1.08299 4.04688 1.39535 4.35924 1.39535 4.74455V7.53525C1.39535 7.92055 1.08299 8.23292 0.697674 8.23292C0.312363 8.23292 0 7.92055 0 7.53525V4.74455C0 4.35924 0.312363 4.04688 0.697674 4.04688Z" fill="#002933"/>
<path fill-rule="evenodd" clip-rule="evenodd" d="M19.2992 4.04688C19.6845 4.04688 19.9969 4.35924 19.9969 4.74455V7.53525C19.9969 7.92055 19.6845 8.23292 19.2992 8.23292C18.9139 8.23292 18.6016 7.92055 18.6016 7.53525V4.74455C18.6016 4.35924 18.9139 4.04688 19.2992 4.04688Z" fill="#002933"/>
<path fill-rule="evenodd" clip-rule="evenodd" d="M11.625 10.3227C11.625 9.93737 11.9374 9.625 12.3227 9.625H16.0436C16.4289 9.625 16.7413 9.93737 16.7413 10.3227C16.7413 10.708 16.4289 11.0203 16.0436 11.0203H12.3227C11.9374 11.0203 11.625 10.708 11.625 10.3227Z" fill="#002933"/>
</svg>
