<svg width="14" height="14" viewBox="0 0 14 14" fill="none" xmlns="http://www.w3.org/2000/svg">
<path fill-rule="evenodd" clip-rule="evenodd" d="M10.6686 6.39395C10.9821 6.21216 11.3837 6.319 11.5654 6.63251L12.8178 8.79267C12.9996 9.10623 12.8928 9.50781 12.5792 9.68959C12.2657 9.87137 11.8641 9.76453 11.6823 9.45098L10.43 7.29082C10.2482 6.97726 10.355 6.57573 10.6686 6.39395Z" fill="#143A43"/>
<path fill-rule="evenodd" clip-rule="evenodd" d="M8.31892 7.51851C8.67588 7.45564 9.01621 7.69404 9.07908 8.05095L9.46736 10.2549C9.53023 10.6118 9.29188 10.9521 8.93493 11.015C8.57801 11.0779 8.23764 10.8395 8.17477 10.4826L7.78649 8.27867C7.72362 7.92176 7.96197 7.58142 8.31892 7.51851Z" fill="#143A43"/>
<path fill-rule="evenodd" clip-rule="evenodd" d="M5.67539 7.51301C6.03234 7.57574 6.27087 7.91599 6.20813 8.27294L5.81985 10.4823C5.75711 10.8393 5.41687 11.0778 5.05991 11.0151C4.70295 10.9523 4.46443 10.6121 4.52717 10.2551L4.91545 8.04575C4.97819 7.68879 5.31843 7.45027 5.67539 7.51301Z" fill="#143A43"/>
<path fill-rule="evenodd" clip-rule="evenodd" d="M3.3248 6.39322C3.63875 6.57434 3.74645 6.97566 3.56536 7.28961L2.31302 9.46071C2.13192 9.77466 1.73061 9.88232 1.41666 9.70124C1.1027 9.52016 0.995003 9.11884 1.1761 8.80489L2.42844 6.6338C2.60954 6.31985 3.01085 6.21214 3.3248 6.39322Z" fill="#143A43"/>
<path fill-rule="evenodd" clip-rule="evenodd" d="M1.33768 5.22618C1.61963 4.99842 2.03282 5.04239 2.26055 5.32436C3.1068 6.37208 4.62166 7.65623 7.00004 7.65623C9.37838 7.65623 10.8932 6.37208 11.7395 5.32436C11.9672 5.04239 12.3804 4.99842 12.6624 5.22618C12.9443 5.4539 12.9883 5.86707 12.7606 6.14904C11.7693 7.37627 9.91541 8.96873 7.00004 8.96873C4.08463 8.96873 2.23075 7.37627 1.2395 6.14904C1.01177 5.86707 1.05572 5.4539 1.33768 5.22618Z" fill="#143A43"/>
</svg>
