<svg width="24" height="24" viewBox="0 0 24 24" fill="none" xmlns="http://www.w3.org/2000/svg">
<g clip-path="url(#clip0_2408_11367)">
<path d="M19.4073 6.99137L15.445 6.41561L13.673 2.82517C12.9886 1.43828 11.0095 1.4387 10.3253 2.82512L8.55329 6.41556L4.59099 6.99137C3.06038 7.21375 2.44941 9.09602 3.55651 10.1753L6.42366 12.97L5.74683 16.9162C5.48541 18.4406 7.08662 19.6033 8.45523 18.884L11.9992 17.0208L15.5432 18.884C16.9099 19.6025 18.513 18.4404 18.2516 16.9162L17.5748 12.97L20.442 10.1752C21.5493 9.09559 20.9373 7.2137 19.4073 6.99137ZM19.325 9.02955L16.1567 12.1179C15.9682 12.3017 15.8821 12.5665 15.9266 12.826L16.6746 17.1868C16.7121 17.4058 16.4843 17.5712 16.2877 17.4679L12.3714 15.409C12.1384 15.2865 11.8599 15.2865 11.6269 15.409L7.71062 17.4679C7.51393 17.5712 7.28616 17.4057 7.32371 17.1868L8.07165 12.826C8.11613 12.5665 8.03012 12.3017 7.84159 12.1179L4.67326 9.02955C4.51412 8.87444 4.60116 8.60669 4.82105 8.57467L9.19955 7.93844C9.46009 7.90056 9.68537 7.73697 9.8019 7.50086L11.7601 3.53322C11.8584 3.33409 12.1399 3.33395 12.2383 3.53327L14.1964 7.50086C14.313 7.73697 14.5382 7.90061 14.7988 7.93844L19.1773 8.57467C19.3971 8.60669 19.4841 8.87448 19.325 9.02955Z" fill="#002933"/>
<path d="M6.32391 2.20915L5.36714 0.892292C5.10736 0.534917 4.60711 0.455604 4.24974 0.715386C3.89232 0.975073 3.81305 1.47537 4.07278 1.83279L5.02955 3.1496C5.28942 3.50717 5.78967 3.58615 6.14696 3.32651C6.50438 3.06687 6.58364 2.56657 6.32391 2.20915Z" fill="#002933"/>
<path d="M3.14052 13.9827C3.00406 13.5626 2.55275 13.3324 2.13247 13.4691L0.552969 13.9823C0.132781 14.1189 -0.0971407 14.5702 0.0393593 14.9904C0.176094 15.4113 0.628156 15.6404 1.04741 15.504L2.62691 14.9908C3.04714 14.8542 3.27706 14.4029 3.14052 13.9827Z" fill="#002933"/>
<path d="M19.7617 0.715358C19.4043 0.455671 18.904 0.534843 18.6443 0.892265L17.6875 2.20908C17.4278 2.5665 17.5071 3.06684 17.8645 3.32648C18.222 3.58626 18.7223 3.50686 18.9819 3.14958L19.9387 1.83276C20.1983 1.47534 20.1191 0.974999 19.7617 0.715358Z" fill="#002933"/>
<path d="M23.4394 13.9824L21.8599 13.4692C21.4397 13.3324 20.9884 13.5626 20.8519 13.9828C20.7153 14.403 20.9453 14.8543 21.3655 14.9908L22.945 15.504C23.3643 15.6404 23.8163 15.4113 23.953 14.9904C24.0896 14.5702 23.8596 14.1189 23.4394 13.9824Z" fill="#002933"/>
<path d="M11.9704 20.1875C11.5286 20.1875 11.1704 20.5457 11.1704 20.9875V22.6111C11.1704 23.0529 11.5286 23.4111 11.9704 23.4111C12.4122 23.4111 12.7703 23.0529 12.7703 22.6111V20.9875C12.7704 20.5456 12.4122 20.1875 11.9704 20.1875Z" fill="#002933"/>
</g>
<defs>
<clipPath id="clip0_2408_11367">
<rect width="24" height="24" fill="white"/>
</clipPath>
</defs>
</svg>
