<svg width="20" height="20" viewBox="0 0 20 20" fill="none" xmlns="http://www.w3.org/2000/svg">
<g clip-path="url(#clip0_2408_11310)">
<path d="M10 4.53125C7.84605 4.53125 6.09375 6.28359 6.09375 8.4375C6.09375 10.5914 7.84605 12.3438 10 12.3438C12.1539 12.3438 13.9062 10.5914 13.9062 8.4375C13.9062 6.28359 12.1539 4.53125 10 4.53125ZM10 10.7812C8.70766 10.7812 7.65625 9.72984 7.65625 8.4375C7.65625 7.14516 8.70766 6.09375 10 6.09375C11.2923 6.09375 12.3438 7.14516 12.3438 8.4375C12.3438 9.72984 11.2923 10.7812 10 10.7812ZM10 0C4.3925 0 0 4.3925 0 10C0 15.627 4.4125 20 10 20C15.5946 20 20 15.6189 20 10C20 4.3925 15.6075 0 10 0ZM10 18.4375C8.16434 18.4375 6.48316 17.8793 5.1127 16.9201C6.0323 15.0965 7.92867 13.9062 10 13.9062C12.0714 13.9062 13.9677 15.0965 14.8873 16.9201C13.5168 17.8793 11.8357 18.4375 10 18.4375ZM16.1032 15.8801C15.5951 14.9923 14.898 14.2247 14.0484 13.6255C12.8594 12.787 11.4595 12.3438 10 12.3438C8.54055 12.3438 7.14066 12.787 5.95168 13.6255C5.10207 14.2247 4.40488 14.9923 3.89684 15.8802C2.44453 14.3713 1.5625 12.3077 1.5625 10C1.5625 5.26871 5.26871 1.5625 10 1.5625C14.7313 1.5625 18.4375 5.26871 18.4375 10C18.4375 12.3077 17.5555 14.3713 16.1032 15.8801Z" fill="#002933"/>
</g>
<defs>
<clipPath id="clip0_2408_11310">
<rect width="20" height="20" fill="white"/>
</clipPath>
</defs>
</svg>
