<svg width="22" height="22" viewBox="0 0 22 22" fill="none" xmlns="http://www.w3.org/2000/svg">
<path d="M2.11111 10V14C2.11111 17.3 2.11111 18.95 3.25 19.975C4.38889 21 6.22222 21 9.88889 21H12.1111C15.7778 21 17.6111 21 18.75 19.975C19.8889 18.95 19.8889 17.3 19.8889 14V10M11 4.857C11 3.83406 10.5485 2.85302 9.74479 2.12969C8.94109 1.40636 7.85104 1 6.71444 1H6.31778C5.22222 1 4.33333 1.799 4.33333 2.786C4.33333 3.63841 4.70957 4.4559 5.37929 5.05864C6.049 5.66138 6.95733 6 7.90444 6H11M11 4.857V6M11 4.857C11 3.83406 11.4515 2.85302 12.2552 2.12969C13.0589 1.40636 14.149 1 15.2856 1H15.6822C16.7778 1 17.6667 1.799 17.6667 2.786C17.6667 3.20807 17.5743 3.626 17.3948 4.01594C17.2154 4.40588 16.9523 4.76019 16.6207 5.05864C16.2891 5.35709 15.8954 5.59383 15.4622 5.75535C15.0289 5.91687 14.5645 6 14.0956 6H11M11 10V21M1 8C1 7.252 1 6.878 1.22333 6.6C1.38174 6.40899 1.5917 6.25754 1.83333 6.16C2.22 6 2.73889 6 3.77778 6H18.2222C19.2611 6 19.78 6 20.1667 6.16C20.42 6.266 20.63 6.418 20.7767 6.6C21 6.878 21 7.252 21 8C21 8.748 21 9.121 20.7767 9.4C20.6183 9.59101 20.4083 9.74246 20.1667 9.84C19.78 10 19.2611 10 18.2222 10H3.77778C2.73889 10 2.22 10 1.83333 9.84C1.5917 9.74246 1.38174 9.59101 1.22333 9.4C1 9.121 1 8.748 1 8Z" stroke="#002933" stroke-width="1.5" stroke-linecap="round" stroke-linejoin="round"/>
</svg>
