<svg width="303" height="202" viewBox="0 0 303 202" fill="none" xmlns="http://www.w3.org/2000/svg">
<path d="M36.1903 113.166C36.1706 112.959 36.1549 112.756 36.1411 112.555C36.0309 112.758 35.9246 112.961 35.8203 113.166C35.9423 113.166 36.0663 113.166 36.1883 113.166H36.1903Z" fill="#E7AB44"/>
<path d="M74.0009 73.3172C85.387 64.018 96.0214 61.0351 104.704 59.0104C107.679 58.3169 110.334 57.7184 111.499 57.5078C111.943 57.4295 112.353 57.23 112.677 56.9317C113.002 56.6334 113.226 56.2512 113.321 55.8336C114.203 51.7619 113.896 45.5761 113.896 45.5761C100.969 43.9131 100.362 33.0386 100.681 28.5381C100.88 25.7304 102.208 21.1796 103.297 17.7679C99.1857 15.8253 97.7137 15.2063 94.9627 12.0333C94.3015 11.3155 93.8764 10.4281 93.7465 9.48287C93.532 8.27293 93.7898 7.03129 94.4727 5.98913C96.35 3.13672 98.6918 2.79742 102.364 3.15537C104.245 3.35671 106.075 3.86754 107.772 4.66733L107.911 4.61513C107.84 3.85076 108.016 3.08266 108.417 2.41523C108.816 1.74781 109.423 1.21275 110.153 0.879033C112.461 -0.254474 115.389 -0.254474 118.195 0.664636C119.319 1.04309 120.388 1.49612 121.474 1.95288C124.372 3.17588 126.478 4.7214 128.855 6.38064C130.048 7.22891 131.083 8.25988 131.917 9.43254C131.874 9.43254 131.837 9.47355 131.801 9.49406L131.984 9.53507L131.917 9.43254C131.984 9.40084 132.053 9.37288 132.124 9.35237C133.391 8.99815 135.034 8.86205 136.172 9.48101C138.565 10.7842 140.159 13.1407 141.237 15.926C142.5 19.3153 142.884 22.9433 142.357 26.5041C142.105 28.2995 141.751 30.2477 141.292 31.4147C140.594 33.1709 140.096 35.4864 138.102 38.1804C135.733 41.387 133.525 42.3807 133.533 43.1674V44.1126C134.121 46.5642 134.442 54.6628 135.312 57.038C135.312 57.038 157.671 61.7193 172.949 75.9217C183.851 86.058 187.342 96.1645 190.678 118.413C198.685 171.837 196.162 185.393 196.162 185.393L172.164 185.654L159.208 102.703L167.059 185.281L131.461 186.025L76.754 184.912L82.6438 128.74C72.6116 129.381 67.1626 133.318 55.4734 132.737C48.0683 132.37 38.6875 127.627 36.3123 120.184C34.3956 114.176 37.9653 107.747 42.1844 103.251C42.1844 103.251 46.2323 95.9985 74.0049 73.3153L74.0009 73.3172Z" fill="#F2A91F"/>
<path opacity="0.7" d="M80.7054 185.002L87.7898 132.563C87.9177 131.614 88.6241 130.825 89.5923 130.555C95.0984 129.019 113.754 123.075 127.005 109.895C127.005 109.895 126.657 110.968 121.596 111.712C121.596 111.712 102.137 124.608 82.9429 128.079L76.748 184.911L80.7035 185.001L80.7054 185.002Z" fill="#CB8F3F"/>
<path d="M110.104 10.0803C112.475 13.0968 112.782 16.9578 112.977 20.6137C113.081 22.5899 113.032 24.5679 112.961 26.5441C112.833 30.0956 112.648 33.6453 113.016 37.1838C113.823 42.0142 115.157 46.7477 117.032 51.3041C118.79 54.9619 120.905 58.4501 123.395 61.7071C124.918 63.4576 126.547 65.102 128.365 66.5804C130.75 68.1781 117.052 68.674 119.632 69.9753C125.724 73.044 131.848 76.0381 137.919 79.1496C143.982 82.2575 150.148 85.1117 156.474 87.6919C157.58 88.1263 158.688 88.557 159.798 88.9821C163.218 90.2927 166.652 91.5809 170.068 92.9102C152.18 61.4964 138.002 58.0679 138.002 58.0679C137.067 55.5175 136.107 47.8029 135.475 45.1705V44.1563C135.467 43.3118 137.841 42.2454 140.383 38.8001C142.524 35.9067 143.059 33.4197 143.809 31.533C144.301 30.2783 144.683 28.1847 144.953 26.257C145.517 22.4333 145.104 18.5368 143.748 14.8958C142.591 11.9055 140.879 9.37371 138.309 7.97361C137.089 7.30805 135.324 7.45346 133.962 7.83565C133.885 7.85802 133.81 7.88599 133.74 7.92141L133.812 8.0314L133.616 7.98666C133.655 7.96615 133.692 7.92141 133.74 7.92141" fill="#F2A91F"/>
<path d="M135.251 76.6449L138.359 65.5969C138.451 65.265 138.782 65.0451 139.144 65.0767C140.95 65.2278 146.433 65.3955 152.006 62.655L150.02 61.8086C150.02 61.8086 144.61 63.7419 137.532 63.1994L133.846 75.2317C133.846 75.2317 134.285 75.3808 134.675 75.8003C135.09 76.244 135.253 76.6467 135.253 76.6467L135.251 76.6449Z" fill="#CB8F3F"/>
<path d="M114.181 49.0156C114.181 49.0156 117.369 58.0781 125.764 63.3821C126.267 63.7009 126.509 64.2807 126.36 64.8381L123.341 76.0483C123.341 76.0483 125.567 75.3044 126.22 73.8167C126.873 72.3289 129.754 61.542 129.754 61.542C129.754 61.542 121.115 59.1855 114.181 49.0194V49.0156Z" fill="#CB8F3F"/>
<path d="M130.276 28.4913C130.237 29.8895 130.003 31.2747 129.576 32.6133C129.332 33.592 128.822 34.4944 128.1 35.2308C126.624 36.5302 125.64 33.8773 125.337 32.8743C124.591 30.1598 124.607 27.3093 125.384 24.6023C125.62 23.7689 126.679 20.4616 128.222 21.2409C129.092 21.6977 129.509 22.9263 129.763 23.7689C130.198 25.307 130.379 26.901 130.302 28.4913C130.302 28.7299 130.402 28.9573 130.579 29.1251C130.756 29.2929 130.999 29.388 131.248 29.388C131.498 29.388 131.74 29.2929 131.918 29.1251C132.095 28.9573 132.195 28.7299 132.195 28.4913C132.276 26.7015 132.059 24.9118 131.551 23.1854C131.237 21.9102 130.51 20.7599 129.471 19.8967C127.163 18.2655 125.054 20.5511 124.194 22.4695C122.791 25.8234 122.531 29.5092 123.456 33.0085C123.967 34.9623 125.471 38.1447 128.186 37.2741C129.578 36.8341 130.42 35.4806 130.959 34.2707C131.735 32.4306 132.152 30.4712 132.189 28.4894C132.219 27.3335 130.326 27.3428 130.278 28.4894L130.276 28.4913Z" fill="#493C2A"/>
<path d="M124.516 17.2791C125.697 16.4178 127.123 15.9125 128.613 15.8286C130.101 15.7466 131.581 16.0896 132.86 16.8149C133.672 17.2772 134.373 16.0523 133.566 15.5919C132.059 14.7473 130.321 14.3446 128.572 14.4341C126.822 14.5236 125.142 15.1015 123.739 16.0952C123.656 16.1437 123.583 16.2071 123.526 16.2817C123.469 16.3562 123.428 16.4401 123.406 16.5296C123.384 16.6191 123.381 16.7123 123.396 16.8018C123.412 16.8913 123.445 16.9789 123.497 17.0572C123.548 17.1355 123.615 17.2045 123.691 17.2586C123.77 17.3126 123.859 17.3518 123.953 17.3723C124.048 17.3928 124.146 17.3965 124.241 17.3816C124.337 17.3667 124.427 17.335 124.51 17.2847V17.2772L124.516 17.2791Z" fill="#493C2A"/>
<path d="M109.061 39.0411C111.4 37.6074 114.277 36.9624 117.046 37.3241C117.361 37.3651 117.68 37.2514 117.772 36.9326C117.849 36.6716 117.678 36.2856 117.359 36.2446C114.271 35.8401 111.091 36.4646 108.464 38.0735C108.197 38.2376 108.086 38.5694 108.252 38.8379C108.407 39.0896 108.791 39.2033 109.059 39.0392L109.061 39.0411Z" fill="#9E6534"/>
<path d="M140.342 5.07608C123.392 5.07608 109.604 18.1394 109.604 34.1986C109.604 46.7623 118.046 57.4914 129.837 61.5669L119.228 96.4557C118.626 98.4338 119.833 100.501 121.92 101.07C122.284 101.169 122.65 101.217 123.013 101.217C124.723 101.217 126.295 100.155 126.793 98.5195L137.533 63.1963C138.458 63.2764 139.397 63.3193 140.344 63.3193C157.293 63.3193 171.084 50.256 171.084 34.1968C171.084 18.1375 157.295 5.07422 140.344 5.07422L140.342 5.07608ZM140.342 57.5399C138.655 57.5399 137.008 57.3777 135.416 57.0701C135.381 57.0589 135.345 57.0459 135.308 57.0347C135.107 56.9806 134.908 56.9471 134.708 56.9228C123.827 54.5029 115.702 45.2317 115.702 34.1968C115.702 21.3255 126.755 10.8536 140.34 10.8536C153.924 10.8536 164.979 21.3255 164.979 34.1968C164.979 47.068 153.926 57.5399 140.34 57.5399H140.342Z" fill="#13130B"/>
<path opacity="0.4" d="M140.412 57.5418C154.02 57.5418 165.052 47.0907 165.052 34.1986C165.052 21.3066 154.02 10.8555 140.412 10.8555C126.804 10.8555 115.772 21.3066 115.772 34.1986C115.772 47.0907 126.804 57.5418 140.412 57.5418Z" fill="#E8EDF9"/>
<path d="M165.272 34.2572C165.327 43.2059 160.032 52.1006 151.411 56.0212C136.693 62.8185 119.376 53.6908 116.011 38.8807C111.439 18.9175 133.631 3.20877 152.544 12.9909C160.494 17.1819 165.357 25.7148 165.272 34.2572ZM165.095 34.2572C165.121 28.1739 162.257 22.2398 157.554 18.142C141.939 4.59023 117.174 14.0945 116.39 34.2572C116.105 51.9962 135.565 62.0803 151.802 54.2128C159.624 50.5103 165.207 42.6578 165.095 34.2572Z" fill="white"/>
<path d="M148.115 17.3711C154.733 18.1951 160.491 24.6009 159.373 31.0086C156.958 24.7631 153.642 21.3384 148.115 17.3711Z" fill="white"/>
<mask id="path-14-outside-1_2200_16541" maskUnits="userSpaceOnUse" x="102" y="21" width="10" height="6" fill="black">
<rect fill="white" x="102" y="21" width="10" height="6"/>
<path d="M104 24.6018C104 24.602 104 24.6021 104 24.6019C104.367 23.5617 105.815 22.9436 107.151 23.0041C108.492 23.0462 109.823 23.8175 109.993 24.8861C109.998 24.9162 109.985 24.9462 109.96 24.9642C109.931 24.9856 109.892 24.986 109.862 24.965C109.779 24.9055 109.696 24.8457 109.61 24.7889C109.304 24.5911 108.967 24.4065 108.611 24.2692C107.166 23.6792 105.399 23.9648 104.101 24.6631C104.087 24.6703 104.071 24.6681 104.06 24.6576L104 24.6017C104 24.6016 104 24.6017 104 24.6018Z"/>
</mask>
<path d="M104 24.6018C104 24.602 104 24.6021 104 24.6019C104.367 23.5617 105.815 22.9436 107.151 23.0041C108.492 23.0462 109.823 23.8175 109.993 24.8861C109.998 24.9162 109.985 24.9462 109.96 24.9642C109.931 24.9856 109.892 24.986 109.862 24.965C109.779 24.9055 109.696 24.8457 109.61 24.7889C109.304 24.5911 108.967 24.4065 108.611 24.2692C107.166 23.6792 105.399 23.9648 104.101 24.6631C104.087 24.6703 104.071 24.6681 104.06 24.6576L104 24.6017C104 24.6016 104 24.6017 104 24.6018Z" fill="#493C2A"/>
<path d="M107.151 23.0041L107.102 24.0724L107.11 24.0728L107.117 24.073L107.151 23.0041ZM109.61 24.7889L110.202 23.8983L110.196 23.8944L110.19 23.8904L109.61 24.7889ZM108.611 24.2692L108.207 25.2594L108.216 25.2633L108.226 25.267L108.611 24.2692ZM104.101 24.6631L103.594 23.7212L104.101 24.6631ZM104.06 24.6576L104.793 23.8795L104.06 24.6576ZM109.862 24.965L110.482 24.0938L109.862 24.965ZM104 24.6017L104.734 23.8236L104 24.6017ZM109.993 24.8861L108.937 25.0539L109.993 24.8861ZM104 24.6019L102.992 24.2465L104 24.6019ZM105.009 24.9573C105.067 24.7934 105.256 24.5564 105.676 24.3536C106.085 24.1567 106.604 24.0499 107.102 24.0724L107.199 21.9357C106.362 21.8978 105.489 22.0698 104.748 22.4268C104.019 22.778 103.3 23.3702 102.992 24.2465L105.009 24.9573ZM107.117 24.073C107.607 24.0884 108.086 24.2395 108.437 24.4627C108.798 24.692 108.916 24.9204 108.937 25.0539L111.049 24.7184C110.901 23.7832 110.268 23.0917 109.585 22.6577C108.893 22.2175 108.036 21.9619 107.184 21.9351L107.117 24.073ZM110.482 24.0938C110.407 24.04 110.306 23.9671 110.202 23.8983L109.018 25.6794C109.085 25.7242 109.15 25.771 109.242 25.8363L110.482 24.0938ZM110.19 23.8904C109.841 23.6648 109.438 23.442 108.996 23.2715L108.226 25.267C108.496 25.3711 108.767 25.5174 109.03 25.6873L110.19 23.8904ZM109.015 23.2791C107.199 22.5376 105.093 22.915 103.594 23.7212L104.607 25.6049C105.705 25.0145 107.133 24.8208 108.207 25.2594L109.015 23.2791ZM104.793 23.8795L104.734 23.8236L103.267 25.3798L103.326 25.4358L104.793 23.8795ZM103.594 23.7212C103.987 23.5101 104.47 23.5744 104.793 23.8795L103.326 25.4358C103.672 25.7618 104.188 25.8305 104.607 25.6049L103.594 23.7212ZM109.328 24.102C109.669 23.8518 110.134 23.8459 110.482 24.0938L109.242 25.8363C109.649 26.1261 110.194 26.1194 110.593 25.8264L109.328 24.102ZM104.734 23.8236C104.052 23.1802 102.931 23.6639 102.931 24.6018H105.069C105.069 25.5394 103.949 26.0229 103.267 25.3798L104.734 23.8236ZM108.937 25.0539C108.876 24.6699 109.045 24.3096 109.328 24.102L110.593 25.8264C110.925 25.5828 111.12 25.1625 111.049 24.7184L108.937 25.0539ZM102.992 24.2465C103.384 23.1333 105.069 23.377 105.069 24.6018H102.931C102.931 25.8271 104.617 26.0709 105.009 24.9573L102.992 24.2465Z" fill="#493C2A" mask="url(#path-14-outside-1_2200_16541)"/>
<mask id="path-16-outside-2_2200_16541" maskUnits="userSpaceOnUse" x="105.448" y="16.3867" width="7" height="6" fill="black">
<rect fill="white" x="105.448" y="16.3867" width="7" height="6"/>
<path d="M107.467 18.803C107.711 19.504 108.181 20.1155 108.811 20.5499C109.443 20.9842 110.2 21.2191 110.981 21.2229C111.076 21.2229 111.168 21.1874 111.235 21.1241C111.302 21.0607 111.34 20.9749 111.34 20.8836C111.34 20.7922 111.302 20.7065 111.235 20.6431C111.168 20.5797 111.078 20.5443 110.981 20.5443C110.358 20.5424 109.751 20.356 109.246 20.0111C108.74 19.6662 108.36 19.1814 108.158 18.6221C108.018 18.2083 107.327 18.3854 107.467 18.803Z"/>
</mask>
<path d="M107.467 18.803C107.711 19.504 108.181 20.1155 108.811 20.5499C109.443 20.9842 110.2 21.2191 110.981 21.2229C111.076 21.2229 111.168 21.1874 111.235 21.1241C111.302 21.0607 111.34 20.9749 111.34 20.8836C111.34 20.7922 111.302 20.7065 111.235 20.6431C111.168 20.5797 111.078 20.5443 110.981 20.5443C110.358 20.5424 109.751 20.356 109.246 20.0111C108.74 19.6662 108.36 19.1814 108.158 18.6221C108.018 18.2083 107.327 18.3854 107.467 18.803Z" fill="#493C2A"/>
<path d="M108.811 20.5499L108.204 21.4302L108.205 21.4311L108.811 20.5499ZM110.981 21.2229L110.976 22.2923H110.981V21.2229ZM110.981 20.5443L110.978 21.6137H110.981V20.5443ZM108.158 18.6221L107.144 18.9642L107.148 18.9754L107.152 18.9865L108.158 18.6221ZM106.457 19.1546C106.778 20.0768 107.393 20.8709 108.204 21.4302L109.418 19.6695C108.969 19.36 108.644 18.9311 108.477 18.4514L106.457 19.1546ZM108.205 21.4311C109.017 21.9895 109.985 22.2876 110.976 22.2923L110.987 20.1534C110.416 20.1507 109.868 19.9789 109.417 19.6686L108.205 21.4311ZM110.981 22.2923C111.335 22.2923 111.695 22.1619 111.971 21.9004L110.5 20.3477C110.642 20.213 110.817 20.1534 110.981 20.1534V22.2923ZM111.971 21.9004C112.247 21.6389 112.409 21.274 112.409 20.8836H110.27C110.27 20.6758 110.357 20.4825 110.5 20.3477L111.971 21.9004ZM112.409 20.8836C112.409 20.4931 112.247 20.1283 111.971 19.8667L110.5 21.4194C110.357 21.2846 110.27 21.0913 110.27 20.8836H112.409ZM111.971 19.8667C111.697 19.6073 111.34 19.4748 110.981 19.4748V21.6137C110.816 21.6137 110.64 21.5521 110.5 21.4194L111.971 19.8667ZM110.985 19.4748C110.571 19.4736 110.174 19.3497 109.848 19.1275L108.643 20.8946C109.329 21.3622 110.144 21.6112 110.978 21.6137L110.985 19.4748ZM109.848 19.1275C109.522 18.9052 109.287 18.5995 109.163 18.2578L107.152 18.9865C107.434 19.7633 107.958 20.4272 108.643 20.8946L109.848 19.1275ZM109.171 18.2801C108.867 17.3796 107.972 17.2275 107.439 17.3655C107.156 17.4388 106.836 17.6123 106.615 17.9349C106.37 18.2917 106.316 18.7328 106.453 19.1423L108.481 18.4637C108.548 18.6644 108.528 18.9267 108.378 19.1458C108.251 19.3306 108.086 19.4075 107.976 19.436C107.862 19.4654 107.713 19.4695 107.551 19.4008C107.366 19.3219 107.211 19.1626 107.144 18.9642L109.171 18.2801Z" fill="#493C2A" mask="url(#path-16-outside-2_2200_16541)"/>
<path d="M63.1367 100.971C63.1367 100.971 71.447 101.776 83.8151 99.5444C96.1831 97.3128 94.4809 97.3128 100.438 96.2595C106.394 95.2061 109.992 91.9808 113.788 90.6795C113.788 90.6795 116.405 88.2 116.537 83.2409C116.669 78.2818 119.089 78.3433 120.004 78.1569C120.919 77.9705 125.762 74.8086 125.762 74.8086L123.865 81.2554C123.865 81.2554 123.997 85.1612 127.203 86.2145C130.408 87.2678 134.728 82.6816 134.728 82.6816L135.71 80.3251C135.71 80.3251 141.141 85.0363 138.915 88.8805C136.69 92.7247 129.361 95.2043 129.361 95.2043L125.894 104.69L115.096 107.913L65.689 110.827L63.1367 100.971Z" fill="#F2A91F"/>
<path d="M159.202 102.703L170.875 183.617" stroke="#9D6434" stroke-width="6.41673" stroke-linecap="round" stroke-linejoin="round"/>
<g opacity="0.7">
<path d="M79.562 102.581C88.0691 98.2407 93.5142 92.0978 100.382 88.3281L91.9301 99.4824L79.562 102.583V102.581Z" fill="#CB8F3F"/>
</g>
<path d="M93.7603 124.831C97.3323 123.639 100.858 122.32 104.319 120.86L104.319 120.86C107.582 119.483 110.792 117.983 113.918 116.336C116.756 114.843 119.528 113.226 122.191 111.457C122.196 111.457 122.204 111.458 122.213 111.461C122.228 111.465 122.243 111.472 122.254 111.479C122.253 111.481 122.251 111.483 122.25 111.485C122.241 111.496 122.228 111.509 122.209 111.521C121.895 111.728 121.583 111.933 121.269 112.137C118.572 113.876 115.768 115.465 112.894 116.937C109.733 118.555 106.49 120.031 103.19 121.385C99.6646 122.83 96.0781 124.142 92.4423 125.319L92.4422 125.319C88.6708 126.542 84.9546 127.595 80.9846 128.56C77.0151 129.524 73.0068 130.336 68.9673 130.986C68.9039 130.996 68.8614 130.985 68.8442 130.977C68.8447 130.975 68.8454 130.973 68.8461 130.971C68.8476 130.966 68.8495 130.962 68.8515 130.958C69.3495 130.877 69.8476 130.795 70.3438 130.71L70.3442 130.71C74.3807 130.02 78.4993 129.141 82.3478 128.168C86.1957 127.195 90.0044 126.084 93.7603 124.831ZM93.7603 124.831L93.591 124.324M93.7603 124.831L93.591 124.324M93.591 124.324C97.1509 123.136 100.664 121.822 104.111 120.368L68.7388 130.435C69.2446 130.353 69.7503 130.269 70.2541 130.183C74.2764 129.495 78.3814 128.619 82.2168 127.65C86.0521 126.68 89.8482 125.573 93.591 124.324Z" fill="#9D6434" stroke="#9D6434" stroke-width="1.06945"/>
<path d="M65.3397 104.588L65.369 104.589C68.5641 104.629 71.752 104.452 74.9079 104.005L65.3397 104.588ZM65.3397 104.588C65.3354 104.588 65.3323 104.587 65.3303 104.586C65.3299 104.585 65.3296 104.585 65.3292 104.583C65.327 104.578 65.3253 104.569 65.3253 104.559C65.3253 104.553 65.326 104.547 65.3269 104.543L65.3397 104.588ZM112.987 91.1693L112.986 91.1677C112.986 91.1678 112.986 91.1678 112.986 91.1678C112.976 91.1711 112.971 91.1727 112.969 91.1732M112.987 91.1693L112.607 91.9171C112.506 91.698 112.585 91.5058 112.625 91.4348C112.666 91.36 112.715 91.3138 112.732 91.2982C112.771 91.2626 112.807 91.2408 112.816 91.2353L112.816 91.235C112.823 91.2305 112.831 91.2265 112.837 91.2229C112.847 91.2182 112.858 91.2134 112.868 91.2087L112.877 91.2047L112.877 91.2048M112.987 91.1693C112.987 91.1694 112.987 91.1694 112.986 91.1694C112.977 91.1713 112.971 91.1728 112.97 91.1732L112.97 91.1732C112.97 91.1733 112.969 91.1733 112.969 91.1733M112.987 91.1693L113.166 91.6611M112.969 91.1732L112.966 91.1651C112.957 91.1687 112.948 91.1724 112.938 91.1763C112.922 91.1834 112.908 91.1898 112.899 91.194L112.888 91.1993L112.881 91.2028C112.878 91.204 112.877 91.2046 112.877 91.2048M112.969 91.1732L112.969 91.1733M112.969 91.1732C112.969 91.1734 112.969 91.1734 112.969 91.1733M112.877 91.2048C112.876 91.2048 112.876 91.2049 112.876 91.2049L112.877 91.2048ZM112.969 91.1733L113.166 91.6611M113.166 91.6611C113.159 91.6636 113.152 91.6664 113.146 91.6693C113.152 91.6668 113.158 91.6641 113.166 91.6611ZM94.5732 98.5498C97.2043 97.6549 99.7743 96.6202 102.285 95.4569C104.993 94.201 107.702 92.9471 110.41 91.6931L110.426 91.6854M94.5732 98.5498L65.3537 104.541C66.2188 104.553 67.0833 104.551 67.9508 104.53M94.5732 98.5498C91.6652 99.5384 88.6912 100.3 85.7124 101.062M94.5732 98.5498L85.7124 101.062M110.426 91.6854L110.65 92.1711L110.642 92.1749C107.931 93.43 105.221 94.6851 102.51 95.942L102.51 95.9421C99.9825 97.1131 97.395 98.1549 94.7454 99.0561L94.7453 99.0561C91.8169 100.052 88.8236 100.818 85.8488 101.579C85.6131 101.639 85.3776 101.7 85.1422 101.76L85.1421 101.76C82.4428 102.451 79.7197 103.135 76.9471 103.633L76.947 103.633C73.9769 104.165 70.9701 104.459 67.9508 104.53M110.426 91.6854L110.651 92.1706L110.65 92.171C110.982 92.0182 111.315 91.8642 111.646 91.7107C111.868 91.6077 112.09 91.505 112.311 91.4029M110.426 91.6854C110.758 91.5326 111.09 91.3792 111.42 91.2259C111.643 91.1229 111.865 91.0199 112.087 90.9173M67.9508 104.53L67.9381 103.996L67.9509 104.53C67.9508 104.53 67.9508 104.53 67.9508 104.53ZM112.087 90.9173L112.311 91.4031C112.311 91.403 112.311 91.403 112.311 91.4029M112.087 90.9173L112.311 91.4027C112.311 91.4028 112.311 91.4029 112.311 91.4029M112.087 90.9173C112.139 90.8935 112.19 90.8695 112.241 90.8456C112.327 90.8055 112.412 90.7656 112.499 90.7271C112.515 90.7193 112.532 90.7114 112.549 90.7035C112.556 90.7002 112.564 90.6969 112.571 90.6936M112.311 91.4029C112.369 91.3761 112.423 91.3509 112.475 91.3267C112.557 91.2885 112.634 91.2525 112.717 91.2154L112.717 91.2155L112.727 91.2104C112.752 91.1988 112.768 91.1911 112.785 91.1836M112.785 91.1836C112.785 91.1838 112.785 91.1839 112.784 91.184L112.571 90.6936M112.785 91.1836C112.871 91.1463 112.93 91.1263 112.995 91.1037C113.003 91.1012 113.01 91.0986 113.018 91.0959C113.1 91.0675 113.194 91.0335 113.316 90.9695M112.785 91.1836C112.785 91.1836 112.785 91.1835 112.786 91.1835L112.571 90.6936M112.571 90.6936C112.678 90.6474 112.754 90.6213 112.821 90.5981C112.903 90.5699 112.972 90.5462 113.067 90.4959M113.316 90.9695C113.316 90.9695 113.316 90.9696 113.315 90.9696L113.067 90.4959M113.316 90.9695C113.316 90.9693 113.316 90.9691 113.317 90.9689L113.067 90.4959M113.316 90.9695L114.018 89.6626C113.77 89.9889 113.437 90.3021 113.067 90.4959M116.312 85.2015C116.312 85.2016 116.312 85.2017 116.312 85.2019L115.787 85.0987L116.312 85.2015ZM116.312 85.2015C116.444 84.5301 116.494 83.8483 116.542 83.2042C116.548 83.1246 116.554 83.0455 116.56 82.9671C116.616 82.2403 116.681 81.5596 116.855 80.9054C117.166 79.7366 117.981 78.6496 119.138 78.3304C119.227 78.3059 119.317 78.2889 119.436 78.2666L119.439 78.266C119.553 78.2445 119.692 78.2183 119.84 78.1762C120.1 78.102 120.35 78.0149 120.59 77.9278L120.592 77.9271C121.098 77.7411 121.586 77.5216 122.071 77.2059C122.573 76.8791 123.086 76.5662 123.606 76.2496L123.686 76.2011C124.178 75.9016 124.678 75.598 125.17 75.2817L125.17 75.2816C125.174 75.2786 125.178 75.2763 125.182 75.2745C125.186 75.2786 125.19 75.2841 125.194 75.2909C125.201 75.3019 125.205 75.313 125.207 75.3221C125.208 75.3262 125.208 75.3293 125.208 75.3314C125.205 75.3346 125.199 75.3404 125.187 75.348L125.187 75.3483C124.871 75.5523 124.549 75.7465 124.219 75.9452C124.127 76.0011 124.034 76.0573 123.94 76.1141C123.317 76.4908 122.696 76.8762 122.083 77.2756L122.083 77.2758C121.673 77.5436 121.24 77.7364 120.739 77.9264C120.288 78.0974 119.86 78.2393 119.416 78.322L119.414 78.3223C118.667 78.4639 118.075 78.911 117.666 79.452L118.093 79.7742L116.312 85.2015ZM83.0618 102.341C83.4507 102.244 83.8396 102.148 84.2284 102.051C86.9046 101.388 89.5723 100.726 92.1908 99.934L83.0618 102.341ZM83.0618 102.341C80.3615 103.012 77.6524 103.615 74.9081 104.005L83.0618 102.341ZM85.7124 101.062C85.4781 101.122 85.2437 101.182 85.0094 101.242L85.7124 101.062ZM109.881 93.1806L109.657 92.6953C109.657 92.6953 109.657 92.6954 109.657 92.6954L109.881 93.1806ZM114.412 90.1537L114.822 90.4955L114.412 90.1534C114.412 90.1535 114.412 90.1536 114.412 90.1537Z" fill="#9D6434" stroke="#9D6434" stroke-width="1.06945"/>
<path d="M134.563 76.7076C134.464 76.5225 134.355 76.3406 134.231 76.1628L134.231 76.1628L134.227 76.1571C134.191 76.1066 134.155 76.0567 134.116 76.0065C134.104 75.9898 134.091 75.9726 134.083 75.9636L133.661 76.2969C133.648 76.2823 133.631 76.2633 133.615 76.2453C133.593 76.2202 133.573 76.197 133.566 76.1903C133.476 76.0976 133.421 75.9842 133.403 75.8673C133.488 75.8146 133.575 75.7943 133.643 75.789C133.781 75.7781 133.884 75.8253 133.906 75.8355L133.907 75.836C133.913 75.8387 133.919 75.8414 133.924 75.8441C133.925 75.8444 133.925 75.8447 133.926 75.8451C133.975 75.87 134.008 75.8965 134.014 75.9014L134.015 75.9019C134.037 75.9191 134.053 75.9345 134.055 75.937L134.055 75.9373C134.062 75.9435 134.066 75.948 134.066 75.948C134.066 75.948 134.061 75.9428 134.049 75.9292C134.045 75.9242 134.038 75.9169 134.031 75.9083C134.005 75.8792 133.967 75.8356 133.952 75.8201L133.95 75.8185C133.938 75.8054 133.934 75.7947 133.932 75.7895C133.933 75.7892 133.933 75.7888 133.933 75.7884C133.934 75.788 133.938 75.7848 133.948 75.7811C133.96 75.7764 133.976 75.7732 133.992 75.773C134.006 75.7728 134.016 75.7749 134.021 75.7764C134.611 76.3913 134.979 77.2476 135.257 78.1232C135.534 78.9976 135.711 79.876 135.588 80.6911C135.459 81.542 135.008 82.2747 134.366 82.9488C133.72 83.6278 132.915 84.214 132.118 84.7843L132.117 84.7844C130.651 85.834 129.026 86.5941 127.328 86.2359L127.327 86.2357C126.637 86.0914 125.972 85.7483 125.555 85.2688L125.554 85.2684C124.981 84.6114 124.566 83.8107 124.318 82.983C124.067 82.1486 123.982 81.2806 124.202 80.5071L124.205 80.4966L134.092 76.9603M134.563 76.7076C134.563 76.7079 134.563 76.7082 134.563 76.7086L134.092 76.9603M134.563 76.7076C134.563 76.7072 134.562 76.7069 134.562 76.7066L134.092 76.9603M134.563 76.7076C134.768 77.0885 134.894 77.3966 135.036 77.7954L135.037 77.7966C135.307 78.5627 135.509 79.334 135.52 80.1391L135.52 80.1393C135.533 81.1223 135.105 81.9472 134.54 82.6278C133.979 83.3033 133.251 83.874 132.599 84.3557M134.092 76.9603C134.28 77.3108 134.397 77.5923 134.532 77.9745C134.794 78.7165 134.975 79.4249 134.985 80.1464C135.007 81.7721 133.58 82.9671 132.281 83.9254M132.599 84.3557L132.599 84.3554L132.281 83.9254M132.599 84.3557L132.598 84.3564C131.857 84.9037 130.995 85.5405 130.05 85.9062C130.05 85.9062 130.05 85.9061 130.05 85.906L129.857 85.4075C130.725 85.0719 131.529 84.4809 132.281 83.9254M132.599 84.3557L132.281 83.9254M133.792 76.4681C133.757 76.4183 133.721 76.3699 133.684 76.3217C133.686 76.3243 133.677 76.3151 133.664 76.3005L133.666 76.2984L133.792 76.4681ZM133.792 76.4681C133.86 76.5653 133.923 76.6646 133.983 76.7659L133.792 76.4681ZM126.015 85.5915L126.011 85.5879C126.011 85.5879 126.011 85.5879 126.011 85.5879C126.009 85.5859 126.004 85.5814 125.997 85.5751C125.994 85.5718 125.989 85.5669 125.983 85.5607C125.978 85.555 125.969 85.5449 125.958 85.5317C125.953 85.5249 125.946 85.5155 125.938 85.504C125.93 85.493 125.919 85.4761 125.907 85.4545C125.901 85.4435 125.894 85.4296 125.887 85.4132C125.879 85.3969 125.871 85.3758 125.864 85.3505C125.862 85.3464 125.861 85.3422 125.86 85.3378C125.86 85.3371 125.86 85.3364 125.859 85.3358C125.853 85.3128 125.847 85.2844 125.844 85.2515C125.84 85.2113 125.839 85.1584 125.851 85.0981C125.863 85.0362 125.887 84.9682 125.931 84.9025C125.943 84.8848 125.967 84.8554 125.986 84.8333C125.967 84.8111 125.948 84.7886 125.929 84.7657C125.915 84.7789 125.902 84.7931 125.89 84.8084C125.835 84.8762 125.801 84.9514 125.784 85.024C125.767 85.0941 125.768 85.1558 125.773 85.2018C125.778 85.2478 125.788 85.2855 125.796 85.3126C125.805 85.3379 125.814 85.3591 125.821 85.3755C125.822 85.3761 125.822 85.3768 125.822 85.3774C125.823 85.3781 125.823 85.3789 125.823 85.3796C125.839 85.4123 125.855 85.4368 125.865 85.451C125.876 85.4664 125.885 85.4785 125.892 85.4868C125.897 85.493 125.902 85.4986 125.907 85.5035C125.933 85.5254 125.958 85.5454 125.978 85.5614C125.991 85.5723 126.003 85.5814 126.011 85.588C126.013 85.5897 126.014 85.5909 126.015 85.5915ZM126.015 85.5915L126.015 85.5919L126.015 85.5915ZM126.035 85.6073C126.035 85.6068 126.034 85.6062 126.033 85.6057L126.031 85.6043L126.207 85.3515L126.207 85.3515L126.333 85.1693L126.336 85.1651L126.333 85.1693L126.239 85.313L126.042 85.6111M126.035 85.6073L126.035 85.6071C126.034 85.6063 126.033 85.6059 126.033 85.6059L126.033 85.6059L126.037 85.6087M126.035 85.6073L126.042 85.6111M126.035 85.6073C126.036 85.6078 126.037 85.6082 126.037 85.6087M126.037 85.6087C126.065 85.6278 126.098 85.651 126.135 85.6747L126.135 85.6751C126.137 85.6764 126.14 85.6778 126.142 85.6791C126.143 85.6799 126.145 85.6808 126.147 85.6817C126.157 85.6865 126.178 85.6959 126.205 85.7051C126.219 85.7097 126.24 85.7163 126.267 85.7218C126.281 85.7246 126.298 85.7276 126.318 85.7298C126.337 85.732 126.363 85.7337 126.393 85.7327C126.406 85.7323 126.421 85.7313 126.438 85.7294C126.439 85.7293 126.439 85.7292 126.44 85.7292C126.445 85.7285 126.451 85.7277 126.458 85.7267M126.037 85.6087L126.042 85.6115L126.042 85.6111M126.458 85.7267C126.473 85.7614 126.49 85.7888 126.503 85.8086C126.522 85.8362 126.54 85.8576 126.554 85.8723C126.568 85.8875 126.581 85.8996 126.591 85.9085C126.61 85.9259 126.628 85.9385 126.638 85.946C126.649 85.9535 126.659 85.9598 126.667 85.9647C126.678 85.9701 126.69 85.9753 126.702 85.9805M126.458 85.7267C126.455 85.7212 126.453 85.7155 126.45 85.7097C126.45 85.7091 126.45 85.7086 126.45 85.7081C126.447 85.701 126.444 85.6937 126.441 85.6861C126.439 85.6793 126.437 85.6721 126.434 85.6646M126.458 85.7267C126.473 85.7244 126.489 85.7212 126.506 85.717C126.51 85.716 126.514 85.715 126.518 85.7139M126.702 85.9805C126.741 85.9984 126.777 86.013 126.801 86.0227L126.804 86.0241L126.888 85.818L126.909 85.7666L127.004 85.5311L127.005 85.5287L127.004 85.5311L126.919 85.7315L126.904 85.768L126.797 86.021M126.702 85.9805C126.699 85.9792 126.697 85.9779 126.694 85.9765L126.7 85.9635M126.702 85.9805C126.705 85.9816 126.707 85.9827 126.71 85.9837L126.714 85.9737M126.797 86.021C126.796 86.0207 126.795 86.0201 126.793 86.0195C126.791 86.0185 126.786 86.0161 126.779 86.0126C126.777 86.0119 126.776 86.011 126.774 86.0099C126.771 86.0083 126.767 86.0064 126.763 86.0042L126.75 85.9969C126.745 85.994 126.739 85.99 126.731 85.9851C126.726 85.9822 126.721 85.9784 126.714 85.9737M126.797 86.021L126.797 86.021C126.798 86.0217 126.798 86.0217 126.797 86.021ZM126.714 85.9737L126.923 85.4933L126.7 85.9635M126.714 85.9737C126.71 85.9707 126.705 85.9673 126.7 85.9636C126.7 85.9636 126.7 85.9635 126.7 85.9635M126.7 85.9635C126.693 85.9586 126.686 85.9525 126.677 85.9451C126.668 85.9378 126.657 85.9279 126.645 85.9157C126.633 85.9038 126.616 85.8867 126.599 85.8645C126.592 85.8552 126.578 85.8347 126.57 85.8235C126.562 85.8103 126.546 85.781 126.538 85.7649C126.533 85.7533 126.525 85.7331 126.518 85.7139M126.518 85.7139C126.56 85.7021 126.611 85.6825 126.664 85.6491C126.722 85.6116 126.778 85.56 126.822 85.4939C126.83 85.4818 126.837 85.4697 126.844 85.4575C126.817 85.4448 126.79 85.4317 126.763 85.4182C126.748 85.4423 126.731 85.4681 126.719 85.4834C126.699 85.507 126.655 85.5496 126.632 85.5686C126.609 85.5852 126.564 85.6136 126.541 85.6256C126.527 85.6327 126.512 85.6388 126.499 85.6441M126.518 85.7139C126.513 85.7015 126.509 85.6895 126.506 85.6805C126.504 85.6713 126.501 85.6584 126.499 85.6441M126.499 85.6441C126.498 85.6384 126.497 85.6324 126.496 85.6264C126.496 85.6258 126.495 85.6253 126.495 85.6247C126.492 85.6022 126.488 85.5789 126.487 85.5627C126.487 85.5272 126.493 85.4536 126.5 85.416C126.508 85.3866 126.527 85.3366 126.544 85.2989C126.521 85.2854 126.498 85.2717 126.476 85.2578C126.463 85.2809 126.452 85.3043 126.445 85.3208C126.433 85.3555 126.417 85.4257 126.413 85.4609C126.406 85.5419 126.418 85.6116 126.434 85.6646M126.499 85.6441C126.493 85.6462 126.488 85.6482 126.483 85.6501C126.482 85.6503 126.482 85.6504 126.481 85.6506C126.465 85.6564 126.449 85.661 126.434 85.6646M126.434 85.6646C126.418 85.6687 126.403 85.6716 126.39 85.6738C126.35 85.6803 126.315 85.6811 126.29 85.6804C126.264 85.6797 126.242 85.6772 126.226 85.6747C126.209 85.6722 126.194 85.6692 126.183 85.6665C126.171 85.6638 126.161 85.661 126.153 85.6585C126.151 85.6579 126.149 85.6574 126.147 85.6569C126.147 85.6568 126.147 85.6567 126.147 85.6567C126.133 85.6524 126.122 85.6483 126.114 85.6452C126.104 85.6415 126.096 85.6381 126.09 85.6355C126.084 85.6327 126.078 85.6303 126.074 85.6282C126.066 85.6243 126.059 85.6208 126.055 85.6186L126.045 85.6128L126.042 85.6111M126.984 85.5194C126.982 85.5188 126.98 85.5182 126.978 85.5176L126.984 85.5194ZM126.984 85.5194C126.991 85.5217 126.999 85.524 127.006 85.5265C127.006 85.5265 127.006 85.5265 127.006 85.5265C127.029 85.5341 127.052 85.5424 127.076 85.5507C127.093 85.5571 127.111 85.5635 127.129 85.5697M126.984 85.5194L127.129 85.5697M127.129 85.5697C127.156 85.5786 127.184 85.5872 127.211 85.5956L127.129 85.5697ZM127.251 85.9474C127.239 85.9558 127.227 85.9632 127.216 85.9696C127.199 85.9794 127.165 85.996 127.149 86.0029C127.135 86.0085 127.108 86.0179 127.095 86.0218C127.084 86.0249 127.063 86.0302 127.052 86.0324C127.043 86.0341 127.026 86.037 127.018 86.0381C127.002 86.0404 126.987 86.0416 126.976 86.0422C126.973 86.0424 126.971 86.0425 126.968 86.0426C126.968 86.0426 126.968 86.0426 126.968 86.0426C126.955 86.0432 126.943 86.0431 126.934 86.0429C126.916 86.0425 126.901 86.0413 126.891 86.0403C126.881 86.0392 126.872 86.038 126.866 86.037C126.854 86.0351 126.844 86.0331 126.838 86.0319L126.829 86.0299L126.823 86.0287C126.822 86.0284 126.821 86.0282 126.82 86.0279C126.815 86.0267 126.812 86.0257 126.81 86.0252C126.806 86.0242 126.805 86.0237 126.808 86.0246L126.82 86.0285L126.82 86.0286L126.828 86.0311C126.85 86.0377 126.861 86.0416 126.878 86.048C126.886 86.051 126.896 86.0545 126.909 86.0592C126.915 86.0606 126.924 86.0622 126.934 86.0638C126.94 86.0649 126.949 86.0663 126.959 86.0675C126.962 86.0677 126.964 86.068 126.966 86.0682C126.966 86.0682 126.967 86.0683 126.967 86.0683C126.98 86.0696 127.001 86.0712 127.026 86.071C127.04 86.0709 127.058 86.0702 127.079 86.0678C127.1 86.0656 127.129 86.0612 127.164 86.0516C127.193 86.0435 127.235 86.0292 127.282 86.0029M127.251 85.9474L127.784 86.2592L127.782 86.2591L127.773 86.2582L127.763 86.2572L127.743 86.255L127.7 86.2501L127.698 86.2499M127.251 85.9474C127.261 85.9677 127.272 85.9862 127.282 86.0029M127.251 85.9474L127.785 86.2482C127.783 86.2484 127.782 86.2486 127.78 86.2487C127.748 86.2515 127.722 86.2507 127.719 86.2506L127.718 86.2506C127.71 86.2504 127.704 86.25 127.701 86.2499L127.695 86.2494C127.696 86.2496 127.697 86.2498 127.698 86.2499M127.282 86.0029C127.31 86.0468 127.338 86.0779 127.354 86.0941C127.379 86.1188 127.404 86.1386 127.425 86.1538M127.282 86.0029C127.289 85.999 127.296 85.9949 127.303 85.9905C127.312 85.9848 127.322 85.9786 127.332 85.9717M127.425 86.1538L127.415 86.2C127.417 86.2003 127.418 86.2005 127.419 86.2008C127.42 86.2011 127.422 86.2013 127.423 86.2016L127.432 86.1582M127.425 86.1538L127.434 86.1162M127.425 86.1538C127.428 86.1553 127.43 86.1568 127.432 86.1582M127.432 86.1582C127.46 86.1776 127.483 86.189 127.492 86.1936C127.517 86.2062 127.538 86.2142 127.549 86.2183C127.571 86.2265 127.59 86.2314 127.597 86.2333C127.6 86.2342 127.603 86.235 127.606 86.2358C127.618 86.2385 127.626 86.2402 127.629 86.2408L127.642 86.2432C127.65 86.2445 127.657 86.2456 127.66 86.2461H127.67M127.432 86.1582L127.439 86.1213M127.67 86.2461L127.69 86.2491M127.67 86.2461L127.657 86.2442L127.645 86.2426C127.645 86.2425 127.645 86.2425 127.645 86.2426C127.646 86.2426 127.647 86.2428 127.648 86.2429L127.658 86.2439L127.671 86.245C127.672 86.245 127.673 86.2451 127.675 86.2453M127.67 86.2461H127.679M127.69 86.2491L127.69 86.249C127.687 86.2488 127.685 86.2486 127.687 86.2488L127.693 86.2494M127.69 86.2491L127.695 86.2494C127.692 86.249 127.69 86.2484 127.687 86.2478C127.685 86.2475 127.683 86.2469 127.679 86.2461M127.69 86.2491L127.693 86.2494M127.693 86.2494L127.695 86.2497L127.695 86.2497L127.706 86.2514C127.707 86.2516 127.705 86.2513 127.701 86.2506C127.701 86.2506 127.7 86.2503 127.698 86.2499M127.693 86.2494L127.695 86.2496L127.698 86.2499M127.332 85.9717C127.345 86.0017 127.358 86.0274 127.369 86.0443C127.39 86.0726 127.413 86.0965 127.434 86.1162M127.332 85.9717C127.382 85.9355 127.439 85.8817 127.484 85.8042C127.495 85.7834 127.51 85.7488 127.522 85.7161M127.332 85.9717L127.522 85.7161M127.434 86.1162C127.436 86.1179 127.437 86.1196 127.439 86.1213M127.434 86.1162L127.522 85.7161M127.439 86.1213C127.483 86.161 127.521 86.1825 127.533 86.1891L127.534 86.1897C127.563 86.2064 127.59 86.2179 127.609 86.2248C127.62 86.229 127.627 86.2316 127.63 86.2325L127.631 86.2328C127.645 86.2375 127.657 86.2406 127.663 86.2421C127.667 86.2433 127.672 86.2444 127.675 86.2453M127.439 86.1213L127.523 85.7127M127.675 86.2453C127.68 86.2455 127.687 86.2458 127.695 86.246C127.698 86.2461 127.702 86.2461 127.706 86.2461H127.695H127.679M127.675 86.2453C127.677 86.2456 127.678 86.2459 127.679 86.2461M127.523 85.7127C127.523 85.7138 127.523 85.715 127.522 85.7161M127.523 85.7127L127.531 85.6778L127.535 85.6789C127.532 85.6893 127.528 85.7009 127.523 85.7127ZM127.786 86.2594C127.957 86.2733 128.135 86.2819 128.318 86.2777C128.318 86.2777 128.318 86.2777 128.319 86.2777L128.315 86.1157C128.316 86.1166 128.316 86.1174 128.317 86.1182C128.333 86.1316 128.363 86.1551 128.378 86.1652C128.391 86.1736 128.416 86.1882 128.427 86.1945C128.438 86.1998 128.458 86.2092 128.467 86.2132C128.49 86.2229 128.51 86.2294 128.525 86.2338C128.54 86.2382 128.553 86.2414 128.564 86.2436C128.567 86.2444 128.571 86.245 128.574 86.2457L128.575 86.2641C128.577 86.264 128.579 86.2639 128.58 86.2638L128.585 86.2635L127.786 86.2594Z" fill="#9D6434" stroke="#9D6434" stroke-width="1.06945"/>
<path d="M135.611 79.9971C135.614 79.9935 135.618 79.9898 135.622 79.986C135.633 79.9755 135.645 79.9675 135.656 79.9625C135.665 79.9583 135.671 79.9571 135.674 79.9567C135.677 79.9584 135.683 79.9628 135.694 79.9729L135.694 79.9735C136.975 81.2232 138.097 82.6671 138.871 84.2267L138.872 84.2271C139.492 85.4722 139.869 86.8378 139.521 88.0549C139.352 88.6443 139.015 89.1552 138.488 89.5697C138.207 89.7912 137.898 89.9883 137.566 90.1955C137.526 90.2203 137.485 90.2453 137.445 90.2705C137.153 90.4512 136.844 90.6433 136.549 90.8552L136.548 90.8556C135.987 91.2605 135.449 91.7103 134.928 92.1487L134.888 92.1821C134.375 92.613 133.876 93.032 133.358 93.4126L133.358 93.4127C132.239 94.2353 131.069 94.837 129.719 94.9959C129.718 94.995 129.717 94.994 129.716 94.993C129.712 94.9883 129.707 94.9828 129.703 94.9769C129.703 94.9761 129.702 94.9754 129.702 94.9746C129.707 94.9713 129.715 94.9676 129.724 94.9639C129.746 94.9551 129.774 94.9474 129.808 94.9436L129.81 94.9434C130.528 94.8615 131.268 94.597 131.893 94.271L131.895 94.2702C132.562 93.9194 133.15 93.5028 133.703 93.0668C133.703 93.0667 133.703 93.0666 133.703 93.0666L133.372 92.6466M135.611 79.9971L136.8 90.6022M135.611 79.9971C136.738 81.0969 137.701 82.3328 138.474 83.684M135.611 79.9971L138.474 83.684M133.372 92.6466C133.744 92.3536 134.107 92.0506 134.47 91.7477C135.128 91.1989 135.786 90.6504 136.497 90.1615M133.372 92.6466C132.833 93.0717 132.274 93.4669 131.646 93.7969M133.372 92.6466L131.646 93.7969M136.497 90.1615L136.799 90.6024C136.799 90.6023 136.8 90.6023 136.8 90.6022M136.497 90.1615L136.8 90.6022M136.497 90.1615C136.696 90.0245 136.906 89.8981 137.117 89.7714C137.508 89.536 137.9 89.2999 138.229 88.9944C138.664 88.5899 138.908 88.0735 138.982 87.5235M136.8 90.6022C136.986 90.4746 137.174 90.3612 137.377 90.2389C137.471 90.1827 137.567 90.1246 137.668 90.0624C137.974 89.8737 138.3 89.6577 138.593 89.3862L138.593 89.386C139.125 88.8907 139.422 88.2582 139.512 87.5959M138.982 87.5235L139.512 87.5959M138.982 87.5235L139.512 87.5955C139.512 87.5956 139.512 87.5957 139.512 87.5959M138.982 87.5235C139.148 86.3135 138.63 85.0309 138.01 83.9496M139.512 87.5959L135.237 80.3794C136.33 81.4458 137.262 82.6427 138.01 83.9496M138.01 83.9496L138.474 83.684M138.01 83.9496L138.474 83.6836C138.474 83.6838 138.474 83.6839 138.474 83.684M131.646 93.7969C131.064 94.1008 130.387 94.3394 129.749 94.4121C129.432 94.4476 129.159 94.6433 129.159 94.9714C129.159 95.2455 129.43 95.5662 129.749 95.5307L131.646 93.7969Z" fill="#9D6434" stroke="#9D6434" stroke-width="1.06945"/>
<path d="M139.419 88.6727C140.563 90.7415 140.551 93.1305 140.496 95.2341C140.495 95.3055 140.495 95.3596 140.496 95.4213C140.497 95.4743 140.498 95.533 140.497 95.6131C140.496 95.7552 140.489 95.9252 140.455 96.0986L140.455 96.0999C140.374 96.4988 140.068 96.692 139.918 96.7868L139.917 96.7878L139.915 96.7888C139.535 97.027 139.168 97.2646 138.813 97.5182C138.527 97.7234 138.237 97.9397 137.944 98.1585C137.479 98.506 137.006 98.8594 136.526 99.1836L139.419 88.6727ZM139.419 88.6727L139.42 88.6716C139.412 88.6562 139.413 88.6455 139.414 88.6426C139.414 88.6414 139.414 88.6412 139.414 88.6411L139.414 88.6411C139.414 88.641 139.415 88.6404 139.416 88.6393C139.417 88.6382 139.42 88.6362 139.424 88.6337L139.165 88.1663L139.419 88.6727ZM139.511 88.6395C140.127 89.7573 140.426 90.992 140.551 92.2874L140.551 92.2878C140.662 93.4247 140.645 94.5863 140.595 95.7566C140.582 96.0544 140.542 96.2613 140.45 96.4094L140.879 96.676L140.45 96.4094C140.351 96.569 140.179 96.7049 139.915 96.8692C139.503 97.1241 139.098 97.3903 138.704 97.6753C138.443 97.8642 138.18 98.06 137.916 98.257C137.381 98.6563 136.839 99.0601 136.29 99.4192L136.29 99.4193C135.354 100.032 134.354 100.528 133.287 100.875C133.282 100.874 133.272 100.872 133.26 100.865C133.252 100.86 133.245 100.855 133.239 100.85C133.249 100.839 133.268 100.825 133.298 100.815L139.511 88.6395Z" fill="#9D6434" stroke="#9D6434" stroke-width="1.06945"/>
<path d="M139.409 97.0901C139.38 97.0976 139.352 97.1076 139.324 97.1198L139.409 97.0901ZM139.409 97.0901C139.734 97.0063 140.027 97.1983 140.135 97.4817C140.83 99.2956 140.208 101.579 138.754 102.916M139.409 97.0901L139.542 97.6079L139.543 97.6079C139.556 97.6044 139.564 97.6048 139.569 97.6055C139.574 97.6062 139.58 97.608 139.588 97.6122C139.604 97.6215 139.624 97.6417 139.636 97.6725L139.636 97.6729C140.245 99.2639 139.7 101.32 138.392 102.522M138.754 102.916L138.392 102.522C138.392 102.522 138.392 102.522 138.392 102.522M138.754 102.916L138.392 102.522M138.754 102.916C138.242 103.386 137.675 103.811 137.107 104.217M138.392 102.522C137.905 102.97 137.36 103.379 136.796 103.782L137.107 104.217M137.107 104.217C136.889 104.373 136.669 104.527 136.439 104.665M137.107 104.217L136.796 103.782M136.439 104.665L136.796 103.782M136.439 104.665C136.386 104.581 136.293 104.478 136.238 104.439C136.212 104.424 136.187 104.412 136.163 104.402L136.08 104.255C136.08 104.255 136.08 104.256 136.079 104.256M136.439 104.665L136.796 103.782M136.796 103.782C136.548 103.959 136.318 104.12 136.079 104.256M136.079 104.256C136.079 104.256 136.079 104.256 136.079 104.256L136.162 104.402M136.079 104.256C135.988 104.307 135.892 104.348 135.757 104.405C135.746 104.409 135.735 104.414 135.724 104.418L135.725 104.419M136.162 104.402L136.445 103.296L136.54 103.229C136.545 103.226 136.56 103.215 136.574 103.205C136.579 103.202 136.583 103.198 136.587 103.196L136.902 103.627C136.901 103.627 136.901 103.628 136.9 103.628C136.899 103.629 136.887 103.637 136.87 103.646C136.87 103.646 136.861 103.651 136.845 103.659C136.831 103.666 136.812 103.674 136.79 103.682C136.778 103.686 136.756 103.69 136.728 103.695C136.727 103.695 136.727 103.695 136.726 103.695C136.667 103.703 136.585 103.71 136.519 103.705C136.414 103.658 136.316 103.555 136.242 103.438C136.241 103.438 136.24 103.439 136.239 103.44C136.154 103.497 136.07 103.554 135.984 103.609C136.017 103.665 136.041 103.733 136.05 103.811C136.058 103.874 136.053 103.931 136.044 103.979C136.043 103.982 136.043 103.984 136.042 103.987C136.023 104.073 135.989 104.132 135.976 104.153C135.929 104.229 135.873 104.276 135.866 104.282L135.865 104.282C135.86 104.286 135.856 104.29 135.852 104.293M136.162 104.402C136.068 104.365 135.99 104.364 135.971 104.364L135.97 104.364C135.905 104.363 135.854 104.375 135.846 104.376L135.846 104.377C135.819 104.383 135.798 104.389 135.794 104.391L135.794 104.391C135.782 104.395 135.772 104.399 135.769 104.4L135.769 104.4L135.759 104.404C135.755 104.405 135.75 104.407 135.746 104.409C135.739 104.412 135.732 104.415 135.725 104.418L135.726 104.419M136.162 104.402L135.726 104.419M135.725 104.419C135.722 104.421 135.717 104.423 135.71 104.426L135.604 104.473L135.604 104.473L135.597 104.476C135.493 104.524 135.393 104.577 135.304 104.625L135.304 104.625L135.302 104.626C134.639 104.987 134.039 105.436 133.476 105.858C133.382 105.928 133.289 105.998 133.197 106.066L133.195 106.067C133.177 106.081 133.158 106.095 133.139 106.109C132.806 106.358 132.499 106.587 132.148 106.82C131.883 106.995 131.612 107.149 131.324 107.312C131.211 107.377 131.095 107.442 130.976 107.512L130.976 107.512C130.448 107.818 129.937 108.129 129.432 108.437C128.491 109.01 127.568 109.571 126.589 110.073M135.725 104.419C135.725 104.419 135.725 104.419 135.726 104.419M135.725 104.419L135.725 104.42M126.589 110.073C125.235 110.765 123.787 111.222 122.263 111.505M126.589 110.073C126.589 110.073 126.589 110.073 126.589 110.073L126.832 110.549M126.589 110.073L126.832 110.549M122.263 111.505C122.209 111.515 122.171 111.504 122.154 111.496C122.153 111.495 122.152 111.495 122.151 111.494M122.263 111.505C122.262 111.505 122.262 111.505 122.262 111.505L122.359 112.031M122.263 111.505C122.263 111.505 122.263 111.505 122.263 111.505L122.359 112.031M122.151 111.494C122.151 111.493 122.152 111.491 122.152 111.49C122.154 111.486 122.156 111.481 122.158 111.478C122.159 111.476 122.159 111.475 122.16 111.474M122.151 111.494C122.149 111.493 122.148 111.492 122.147 111.492C122.147 111.491 122.147 111.49 122.146 111.489L121.633 111.639M122.151 111.494C122.15 111.497 122.15 111.499 122.15 111.501C122.149 111.503 122.149 111.504 122.149 111.504C122.149 111.504 122.15 111.5 122.147 111.493L121.633 111.639M122.16 111.474C123.062 111.307 123.966 111.089 124.843 110.777L124.844 110.776C125.239 110.635 125.464 110.543 125.871 110.356C126.235 110.189 126.588 110.008 126.932 109.822M122.16 111.474C122.155 111.475 122.149 111.476 122.144 111.477M122.16 111.474C122.163 111.47 122.165 111.469 122.165 111.469C122.165 111.469 122.164 111.469 122.164 111.469C122.163 111.47 122.161 111.471 122.157 111.473C122.153 111.475 122.148 111.476 122.144 111.477M126.932 109.822C126.932 109.822 126.932 109.822 126.932 109.822L126.677 109.352L126.932 109.822ZM126.932 109.822C127.708 109.401 128.463 108.95 129.207 108.5C129.32 108.432 129.432 108.364 129.545 108.296C130.176 107.914 130.8 107.537 131.435 107.174L131.436 107.174C132.16 106.758 132.782 106.296 133.405 105.833L133.409 105.831L133.409 105.831C133.478 105.78 133.546 105.729 133.613 105.678C134.218 105.227 134.784 104.805 135.412 104.499L135.412 104.499L135.416 104.497C135.484 104.463 135.556 104.431 135.634 104.399L135.634 104.399L135.641 104.396C135.643 104.396 135.645 104.395 135.647 104.394C135.658 104.391 135.666 104.389 135.67 104.388C135.691 104.382 135.706 104.376 135.711 104.374C135.729 104.367 135.747 104.359 135.753 104.356L135.754 104.356C135.771 104.348 135.798 104.336 135.835 104.319C135.841 104.316 135.846 104.314 135.852 104.311L135.848 104.303C135.85 104.301 135.853 104.3 135.855 104.299L135.852 104.293M135.852 104.293C135.851 104.294 135.85 104.295 135.849 104.295M135.852 104.293L135.816 104.235M136.902 103.627L136.85 103.665L136.755 103.732L136.753 103.734L136.753 103.734C136.685 103.782 136.612 103.833 136.538 103.883C136.412 103.969 136.28 104.056 136.142 104.14L136.135 104.144L136.135 104.144C136.079 104.178 136.021 104.208 135.977 104.232L135.969 104.236C135.919 104.263 135.884 104.281 135.852 104.3L135.849 104.295M136.902 103.627L135.846 104.298M136.902 103.627L136.903 103.628L136.903 103.627M136.902 103.627L136.903 103.627M135.849 104.295L135.827 104.259M135.849 104.295C135.848 104.296 135.847 104.297 135.846 104.298M135.816 104.235L135.62 103.817C135.62 103.817 135.619 103.817 135.618 103.818C135.618 103.818 135.618 103.818 135.618 103.818L135.623 103.828L135.797 104.204L135.814 104.232L135.816 104.235ZM135.816 104.235L135.827 104.259M135.827 104.259L135.826 104.257L135.807 104.225L135.842 104.301C135.843 104.3 135.844 104.299 135.846 104.298C135.846 104.298 135.846 104.298 135.846 104.298M135.827 104.259L135.846 104.298M135.725 104.42L135.932 104.913C135.932 104.912 135.932 104.912 135.932 104.912L135.932 104.911L135.726 104.419C135.725 104.419 135.725 104.419 135.725 104.42ZM135.725 104.42C135.722 104.421 135.717 104.423 135.713 104.426L135.712 104.426C135.709 104.428 135.697 104.434 135.682 104.444C135.675 104.448 135.656 104.46 135.633 104.478C135.628 104.481 135.622 104.487 135.613 104.494C135.611 104.495 135.609 104.497 135.607 104.499C135.597 104.508 135.585 104.519 135.573 104.533L135.572 104.534C135.556 104.55 135.482 104.63 135.447 104.759C135.441 104.787 135.439 104.829 135.439 104.875C135.439 104.876 135.439 104.877 135.439 104.878C135.44 104.951 135.448 105.036 135.464 105.092C135.471 105.105 135.479 105.119 135.489 105.134C134.89 105.468 134.345 105.876 133.801 106.282C133.706 106.354 133.611 106.425 133.515 106.496C133.496 106.51 133.476 106.525 133.456 106.54C133.125 106.787 132.807 107.024 132.443 107.266C132.162 107.452 131.867 107.619 131.573 107.786L135.726 104.419M124.664 110.273C125.044 110.137 125.254 110.051 125.648 109.87L124.664 110.273ZM124.664 110.273C123.816 110.575 122.936 110.787 122.046 110.951M124.664 110.273L121.633 111.639M136.903 103.627C136.908 103.624 136.912 103.621 136.917 103.617L136.922 103.613L136.923 103.613C137.412 103.254 137.929 102.863 138.388 102.416C139.65 101.189 140.109 99.2265 139.518 97.6258C139.521 97.6224 139.525 97.6192 139.529 97.6163L136.903 103.627ZM122.144 111.477L122.046 110.951M122.144 111.477C122.144 111.477 122.144 111.477 122.143 111.477L122.046 110.951M122.046 110.951C121.734 111.009 121.555 111.363 121.633 111.639M121.633 111.639C121.724 111.949 122.045 112.089 122.359 112.031M121.633 111.639L126.832 110.549M122.359 112.031C123.926 111.74 125.425 111.268 126.832 110.549M133.296 105.248C133.227 105.299 133.159 105.35 133.09 105.401L135.03 104.092C134.413 104.414 133.85 104.834 133.296 105.248Z" fill="#9D6434" stroke="#9D6434" stroke-width="1.06945"/>
<path d="M83.4411 100.695L83.441 100.695C82.2047 101.571 80.9005 102.316 79.4553 102.595H79.4548L79.4069 102.604C79.3531 102.614 79.3147 102.603 79.2982 102.595C79.297 102.594 79.296 102.594 79.2951 102.593C79.2955 102.592 79.2959 102.59 79.2965 102.589C79.298 102.585 79.2998 102.58 79.3019 102.577C79.3027 102.575 79.3035 102.574 79.3042 102.573C81.1551 102.227 82.6929 101.183 84.0493 100.175L84.0493 100.175C86.86 98.0868 89.6739 95.9626 92.3328 93.6706L92.3329 93.6705C92.7248 93.3325 93.1095 92.9913 93.4914 92.6525C95.445 90.9196 97.3289 89.2485 99.7632 88.3765C99.7674 88.378 99.7731 88.3804 99.7801 88.3844C99.7894 88.3898 99.7978 88.3962 99.8045 88.4025C99.7923 88.4138 99.7704 88.4296 99.7352 88.4421L99.7347 88.4423C98.0493 89.0428 96.606 90.0846 95.321 91.1566L95.3208 91.1568C94.6998 91.6753 94.0958 92.2104 93.4985 92.7402L93.4605 92.7739C92.8743 93.2939 92.2944 93.8082 91.7009 94.3065L91.7005 94.3068C90.3632 95.4311 88.9613 96.533 87.589 97.5839C87.3946 97.7328 87.2006 97.8817 87.0067 98.0304C85.8244 98.9377 84.6495 99.8393 83.4411 100.695Z" fill="#9D6434" stroke="#9D6434" stroke-width="1.06945"/>
<path d="M10 191.027H279.35" stroke="#BC6A3C" stroke-width="20" stroke-linecap="round" stroke-linejoin="round"/>
<path d="M159.658 104.441L179.685 185.532L171.963 185.657L159.658 104.441Z" fill="#493C2A"/>
<path opacity="0.6" d="M42.1787 103.252C42.1787 103.252 88.526 59.0587 113.394 59.3067C113.394 59.3067 115.161 58.8723 115.291 56.9502C115.421 55.0281 114.047 49.2617 114.047 49.2617C114.047 49.2617 113.831 53.9747 113.317 55.8334C112.804 57.6922 111.495 57.5076 111.495 57.5076C111.495 57.5076 96.2046 60.2966 85.9953 65.5055C75.786 70.7145 64.0949 81.7065 64.0949 81.7065C64.0949 81.7065 48.3559 94.7083 42.1768 103.252H42.1787Z" fill="#CB8F3F"/>
<path d="M152.776 172.85C152.776 172.85 146.042 171.655 133.84 185.612C123.453 197.491 118.752 202.778 104.959 201.343C99.8033 200.806 94.9407 198.794 90.9852 195.616C87.2463 192.612 82.7261 188.537 80.7031 184.998C80.7031 184.998 84.5995 185.222 89.226 176.847C91.1761 173.318 94.2854 170.287 97.2293 167.958C101.464 164.608 107.11 163.329 112.498 164.453L152.772 172.852L152.776 172.85Z" fill="#99CCFF"/>
<path d="M231.052 164.666C231.052 164.666 215.902 163.713 207.487 182.233C199.074 200.754 195.286 205.17 184.343 199.973C173.4 194.777 175.924 197.538 172.136 187.785C168.346 178.031 161.185 175.895 161.185 175.895C161.185 175.895 164.103 166.364 169.936 159.888C173.966 155.415 180.368 153.557 186.384 155.009L231.052 164.666Z" fill="#99CCFF"/>
<path d="M257.189 187.086C257.189 187.086 249.129 184.398 244.3 175.227C239.471 166.058 232.583 162.909 226.424 164.664C220.264 166.418 214.607 169.052 211.047 175.643C211.047 175.643 236.184 184.198 257.189 187.086Z" fill="#335CDF"/>
<path d="M257.546 61.1953C257.546 61.1953 249.564 135.755 231.052 164.665C231.052 164.665 239.866 167.255 244.3 175.228C248.732 183.202 259.256 192.371 268.091 185.191C276.927 178.014 291.655 161.073 302.999 69.2641L257.546 61.1953Z" fill="#99CCFF"/>
<path d="M184.345 199.972C184.345 199.972 177.188 192.569 170.875 183.613C164.56 174.657 162.586 174.897 152.776 172.85C142.966 170.805 133.839 185.611 133.839 185.611C133.839 185.611 133.839 189.2 140.152 190.794C146.465 192.388 184.343 199.972 184.343 199.972H184.345Z" fill="#335CDF"/>
<g opacity="0.5">
<path d="M294.508 82.9587C294.367 82.9587 294.225 82.9456 294.081 82.9195L262.59 77.2166C261.362 76.9947 260.557 75.8706 260.791 74.7072C261.025 73.5439 262.21 72.7814 263.44 73.0032L294.932 78.7062C296.16 78.928 296.964 80.0522 296.73 81.2156C296.524 82.2428 295.575 82.9568 294.51 82.9568L294.508 82.9587Z" fill="#71767A"/>
<path d="M293.135 90.0876C292.993 90.0876 292.852 90.0746 292.708 90.0485L261.216 84.3455C259.988 84.1236 259.183 82.9995 259.417 81.8361C259.652 80.6728 260.836 79.9103 262.066 80.1321L293.558 85.8351C294.786 86.0569 295.591 87.1811 295.357 88.3445C295.15 89.3717 294.202 90.0857 293.137 90.0857L293.135 90.0876Z" fill="#71767A"/>
<path d="M278.435 95.2966C278.285 95.2966 278.136 95.2817 277.982 95.2537L261.19 92.0303C259.966 91.7954 259.173 90.6638 259.421 89.5042C259.669 88.3446 260.862 87.5932 262.088 87.8282L278.88 91.0516C280.104 91.2865 280.897 92.4181 280.649 93.5777C280.432 94.5938 279.488 95.2966 278.433 95.2966H278.435Z" fill="#71767A"/>
</g>
<path d="M134.383 179.39C134.239 179.386 134.094 179.367 133.948 179.336L102.051 172.363C100.807 172.091 100.028 170.894 100.311 169.688C100.594 168.482 101.828 167.725 103.074 167.997L134.971 174.969C136.215 175.242 136.994 176.438 136.711 177.645C136.461 178.709 135.467 179.425 134.383 179.39Z" fill="#71767A"/>
<path d="M129.132 185.445C128.993 185.438 128.849 185.415 128.707 185.382L97.6466 177.85C96.4363 177.555 95.7062 176.388 96.0152 175.242C96.3261 174.095 97.556 173.403 98.7682 173.696L129.829 181.228C131.039 181.522 131.769 182.69 131.46 183.836C131.187 184.848 130.193 185.507 129.13 185.445H129.132Z" fill="#71767A"/>
<path d="M109.351 188.462C109.204 188.453 109.052 188.429 108.905 188.39L92.3963 184.042C91.1919 183.725 90.4874 182.543 90.822 181.402C91.1565 180.261 92.4022 179.594 93.6085 179.911L110.117 184.258C111.321 184.575 112.026 185.757 111.691 186.898C111.398 187.898 110.404 188.533 109.351 188.462Z" fill="#71767A"/>
<g opacity="0.5">
<path d="M278.608 153.388C278.466 153.388 278.324 153.375 278.181 153.349L246.689 147.646C245.461 147.424 244.656 146.3 244.89 145.137C245.124 143.974 246.309 143.211 247.539 143.433L279.031 149.136C280.259 149.358 281.063 150.482 280.829 151.645C280.623 152.672 279.674 153.387 278.61 153.387L278.608 153.388Z" fill="#71767A"/>
<path d="M275.662 160.146C275.52 160.146 275.378 160.133 275.235 160.107L243.743 154.404C242.515 154.182 241.71 153.058 241.944 151.895C242.178 150.731 243.363 149.969 244.593 150.191L276.085 155.894C277.313 156.116 278.118 157.24 277.884 158.403C277.677 159.43 276.728 160.144 275.664 160.144L275.662 160.146Z" fill="#71767A"/>
<path d="M255.794 163.146C255.674 163.146 255.552 163.135 255.43 163.111L241.907 160.514C240.921 160.324 240.283 159.414 240.482 158.478C240.681 157.544 241.643 156.94 242.631 157.128L256.154 159.725C257.14 159.915 257.778 160.825 257.579 161.761C257.404 162.579 256.644 163.144 255.794 163.144V163.146Z" fill="#71767A"/>
</g>
<path opacity="0.5" d="M257.296 98.5448L292.633 104.992C292.633 104.992 286.09 136.486 283.209 141.693L248.918 135.059C248.918 135.059 253.238 121.854 257.296 98.543V98.5448Z" fill="#71767A"/>
<path d="M175.105 170.035C176.222 167.271 175.756 164.534 174.064 163.92C172.372 163.306 170.095 165.049 168.978 167.813C167.861 170.576 168.328 173.314 170.02 173.928C171.712 174.541 173.989 172.799 175.105 170.035Z" fill="#71767A"/>
<path d="M98.737 199.788C98.737 199.788 86.1721 196.439 74.786 168.913L30.8101 159.613C30.8101 159.613 36.3063 185.279 60.2572 192.72C60.2572 192.72 87.7425 199.788 98.735 199.788H98.737Z" fill="#335CDF"/>
<path d="M109.115 3.4494L109.094 3.44505C109.21 3.65538 109.329 3.86404 109.452 4.07096C109.605 4.09059 109.763 4.10711 109.929 4.12409C109.943 4.12549 109.957 4.12691 109.971 4.12833C110.151 4.14682 110.341 4.16621 110.53 4.19046C110.936 4.24253 111.37 4.32033 111.786 4.4796C112.542 4.76636 113.205 5.23782 113.712 5.84871C114.005 6.18597 114.207 6.59237 114.294 7.02828C114.384 7.46746 114.354 7.91856 114.213 8.34051L114.206 8.36093L114.197 8.38073C113.953 8.9541 113.468 9.24953 112.96 9.32757C112.471 9.40263 111.956 9.28241 111.539 9.04648L111.531 9.04178L111.523 9.0368C110.834 8.61363 110.221 8.08809 109.708 7.47926C109.201 6.91121 108.762 6.30098 108.366 5.67343C107.965 5.61237 107.564 5.54626 107.164 5.47386C106.475 5.35065 105.783 5.20422 105.101 5.05986C104.764 4.98865 104.43 4.91794 104.1 4.85077C103.847 4.79941 103.631 4.6515 103.51 4.42145C103.396 4.20538 103.396 3.97121 103.452 3.78012C103.563 3.39841 103.96 3.03669 104.504 3.14838C104.855 3.21975 105.201 3.293 105.544 3.36572C106.117 3.48716 106.683 3.60712 107.256 3.71433C107.179 3.56929 107.104 3.42467 107.029 3.28077C106.905 3.04438 106.898 2.78709 106.987 2.56247C107.071 2.35131 107.229 2.19571 107.398 2.10188C107.567 2.00829 107.786 1.95523 108.015 2.00205C108.26 2.05231 108.47 2.20941 108.593 2.44683L109.115 3.4494ZM110.943 6.0481C110.879 6.03317 110.814 6.01922 110.75 6.00627C111.059 6.38173 111.401 6.73318 111.772 7.05427L111.78 7.06084L111.787 7.06769C111.998 7.26377 112.233 7.43303 112.488 7.57078C112.509 7.58092 112.533 7.59073 112.558 7.59869C112.559 7.59564 112.559 7.5926 112.559 7.58955C112.566 7.52969 112.558 7.47352 112.54 7.425L112.532 7.40264L112.526 7.37964C112.472 7.18106 112.369 6.99572 112.223 6.84035L112.223 6.84035L112.222 6.8388C111.88 6.47186 111.439 6.19772 110.943 6.0481Z" fill="#493C2A" stroke="#493C2A" stroke-width="1.06945"/>
</svg>
