<svg width="13" height="16" viewBox="0 0 13 16" fill="none" xmlns="http://www.w3.org/2000/svg">
<path d="M6.44 1C3.43667 1 1 3.12072 1 5.73266C1 8.73808 4.62667 13.5008 5.95833 15.1458C6.01361 15.2153 6.08606 15.2718 6.16977 15.3107C6.25348 15.3497 6.34607 15.37 6.44 15.37C6.53393 15.37 6.62652 15.3497 6.71023 15.3107C6.79394 15.2718 6.86639 15.2153 6.92167 15.1458C8.25333 13.5015 11.88 8.74049 11.88 5.73266C11.88 3.12072 9.44333 1 6.44 1Z" stroke="#1875F7" stroke-linecap="round" stroke-linejoin="round"/>
<path d="M6.44 7.63264C7.44148 7.63264 8.25333 6.89025 8.25333 5.97448C8.25333 5.0587 7.44148 4.31632 6.44 4.31632C5.43852 4.31632 4.62667 5.0587 4.62667 5.97448C4.62667 6.89025 5.43852 7.63264 6.44 7.63264Z" stroke="#1875F7" stroke-linecap="round" stroke-linejoin="round"/>
</svg>
