<svg width="14" height="13" viewBox="0 0 14 13" fill="none" xmlns="http://www.w3.org/2000/svg">
<path d="M13.4284 0.687376C13.2504 0.547676 13.043 0.450382 12.8219 0.402895C12.6007 0.355407 12.3716 0.358976 12.1521 0.413329L9.38812 1.11019C9.27445 1.13339 9.15727 1.13339 9.0436 1.11019L5.14431 0.139282C4.90733 0.0844319 4.66095 0.0844319 4.42396 0.139282L1.12757 0.969252C0.805338 1.04825 0.518997 1.23323 0.314522 1.4945C0.110047 1.75578 -0.000699 2.07818 6.49132e-05 2.40996V11.1403C-0.00206922 11.367 0.0484462 11.591 0.147633 11.7948C0.246819 11.9986 0.391968 12.1766 0.571648 12.3148C0.74955 12.4545 0.956966 12.5518 1.17812 12.5993C1.39928 12.6468 1.62835 12.6432 1.84792 12.5888L4.61188 11.892C4.72555 11.8688 4.84273 11.8688 4.9564 11.892L8.85569 12.8629C8.97412 12.888 9.09479 12.9011 9.21586 12.902C9.3369 12.9006 9.45752 12.8875 9.57604 12.8629L12.8724 12.0329C13.1947 11.9539 13.481 11.7689 13.6855 11.5077C13.89 11.2464 14.0007 10.924 13.9999 10.5922V1.86186C14.0021 1.63521 13.9516 1.41116 13.8524 1.20735C13.7532 1.00354 13.608 0.825545 13.4284 0.687376ZM4.39264 11.1403L1.66 11.8215C1.55611 11.8493 1.4472 11.8527 1.34178 11.8314C1.23636 11.8101 1.13731 11.7646 1.05238 11.6987C0.967445 11.6327 0.898935 11.5479 0.85221 11.4511C0.805486 11.3542 0.781817 11.2478 0.783055 11.1403V2.40996C0.783525 2.2534 0.836115 2.10145 0.932526 1.9781C1.02894 1.85475 1.16368 1.76702 1.31549 1.72875L4.39264 0.953593V11.1403ZM8.82437 12.0486L5.17563 11.1403V0.953593L8.82437 1.86186V12.0486ZM13.2169 10.5922C13.2165 10.7488 13.1639 10.9007 13.0675 11.0241C12.9711 11.1474 12.8363 11.2351 12.6845 11.2734L9.60736 12.0486V1.86186L12.34 1.18066C12.4446 1.1533 12.5541 1.15036 12.66 1.17209C12.7659 1.19381 12.8654 1.23961 12.9507 1.30594C13.0348 1.37198 13.1025 1.45647 13.1486 1.55287C13.1948 1.64926 13.2182 1.75499 13.2169 1.86186V10.5922Z" fill="#1875F7"/>
</svg>
