<svg width="41" height="14" viewBox="0 0 41 14" fill="none" xmlns="http://www.w3.org/2000/svg">
<path d="M15.2829 0.728611L10.0141 13.3011H6.57515L3.98418 3.26856C3.82467 2.64987 3.68835 2.42472 3.21006 2.16199C2.42659 1.73841 1.13787 1.3411 0 1.09362L0.0796364 0.728689H5.61244C6.31809 0.728689 6.9525 1.19935 7.11201 2.01073L8.48203 9.28744L11.8659 0.728689L15.2829 0.728611ZM28.7532 9.19444C28.7684 5.87801 24.1642 5.69752 24.1973 4.21382C24.2063 3.76093 24.6355 3.28169 25.5756 3.16071C26.0424 3.0986 27.327 3.05308 28.783 3.72154L29.3537 1.05667C28.5703 0.77232 27.5633 0.5 26.3118 0.5C23.0973 0.5 20.8344 2.20979 20.8153 4.65619C20.7942 6.46526 22.4298 7.47483 23.6635 8.07733C24.9303 8.69382 25.3539 9.08745 25.3494 9.64034C25.3411 10.4842 24.3386 10.853 23.4036 10.8696C21.768 10.895 20.8194 10.4276 20.0618 10.0748L19.473 12.8312C20.2318 13.1796 21.6368 13.4822 23.0909 13.5C26.5074 13.4998 28.7424 11.8083 28.7532 9.19444ZM37.2419 13.3012H40.2506L37.6253 0.728689H34.8477C34.2236 0.728689 33.6975 1.09267 33.463 1.65029L28.5856 13.3012H31.9995L32.6771 11.4236H36.8501L37.2419 13.3012ZM33.6127 8.84665L35.3254 4.12585L36.3107 8.84665H33.6127ZM19.9307 0.728611L17.2398 13.3011H13.9868L16.6784 0.728611H19.9307Z" fill="#1A2ADF"/>
</svg>
